<svg width="375" height="262" viewBox="0 0 375 262" fill="none" xmlns="http://www.w3.org/2000/svg">
<g filter="url(#filter0_di_527_1924)">
<path d="M81.3323 96.4452C81.0562 94.5976 82.6287 93.0011 84.4802 93.2493L191.872 107.643C193.358 107.842 194.425 109.174 194.295 110.668L192.028 136.582C191.888 138.18 190.439 139.336 188.85 139.118L87.6734 125.222C86.439 125.052 85.4643 124.089 85.2801 122.857L81.3323 96.4452Z" fill="#FF7B01"/>
</g>
<g filter="url(#filter1_di_527_1924)">
<path d="M60.0978 73.4132C59.8216 71.5656 61.3941 69.9691 63.2456 70.2173L170.638 84.6107C172.124 84.8099 173.191 86.1425 173.06 87.6363L170.793 113.55C170.653 115.148 169.205 116.304 167.616 116.086L66.4388 102.19C65.2044 102.02 64.2297 101.057 64.0455 99.8247L60.0978 73.4132Z" fill="#FFA001"/>
</g>
<g filter="url(#filter2_di_527_1924)">
<path d="M39.4389 43.8153C39.1627 41.9677 40.7352 40.3712 42.5868 40.6194L149.979 55.0128C151.465 55.212 152.532 56.5446 152.401 58.0384L150.134 83.9526C149.994 85.5504 148.546 86.7061 146.957 86.4879L45.78 72.5919C44.5456 72.4223 43.5708 71.4591 43.3866 70.2268L39.4389 43.8153Z" fill="#FECC50"/>
</g>
<g filter="url(#filter3_di_527_1924)">
<path d="M294.668 96.4452C294.944 94.5976 293.372 93.0011 291.52 93.2493L184.128 107.643C182.642 107.842 181.575 109.174 181.706 110.668L183.973 136.582C184.113 138.18 185.561 139.336 187.15 139.118L288.327 125.222C289.561 125.052 290.536 124.089 290.72 122.857L294.668 96.4452Z" fill="#FF7B01"/>
</g>
<g filter="url(#filter4_di_527_1924)">
<path d="M315.902 73.4132C316.178 71.5656 314.606 69.9691 312.754 70.2173L205.362 84.6107C203.876 84.8099 202.809 86.1425 202.94 87.6363L205.207 113.55C205.347 115.148 206.795 116.304 208.384 116.086L309.561 102.19C310.795 102.02 311.77 101.057 311.954 99.8247L315.902 73.4132Z" fill="#FFA001"/>
</g>
<g filter="url(#filter5_di_527_1924)">
<path d="M336.561 43.8153C336.837 41.9677 335.265 40.3712 333.413 40.6194L226.021 55.0128C224.535 55.212 223.468 56.5446 223.599 58.0384L225.866 83.9526C226.006 85.5504 227.454 86.7061 229.043 86.4879L330.22 72.5919C331.454 72.4223 332.429 71.4591 332.613 70.2268L336.561 43.8153Z" fill="#FECC50"/>
</g>
<g filter="url(#filter6_d_527_1924)">
<mask id="mask0_527_1924" style="mask-type:alpha" maskUnits="userSpaceOnUse" x="150" y="12" width="78" height="78">
<path d="M187.005 12.9841C188.101 11.8883 189.878 11.8883 190.974 12.9841L208.989 31L227.005 49.0159C228.101 50.1117 228.101 51.8883 227.005 52.9841L208.989 71L190.974 89.0159C189.878 90.1117 188.101 90.1117 187.005 89.0159L168.989 71L150.974 52.9841C149.878 51.8883 149.878 50.1117 150.974 49.0159L168.989 31L187.005 12.9841Z" fill="#C4C4C4"/>
</mask>
<g mask="url(#mask0_527_1924)">
<path d="M188.989 91V11L148.989 51L188.989 91Z" fill="#FFD0F5"/>
<path d="M188.989 11V91L228.989 51L188.989 11Z" fill="#FF97F1"/>
<path d="M268.989 91L228.989 51L188.989 91H268.989Z" fill="#FFD0F5"/>
<path d="M108.989 91H188.989L148.989 51L108.989 91Z" fill="#FFD0F5"/>
</g>
</g>
<g filter="url(#filter7_d_527_1924)">
<mask id="mask1_527_1924" style="mask-type:alpha" maskUnits="userSpaceOnUse" x="190" y="52" width="78" height="78">
<path d="M267.079 88.9422C268.175 90.038 268.175 91.8146 267.079 92.9104L249.063 110.926L231.047 128.942C229.951 130.038 228.175 130.038 227.079 128.942L209.063 110.926L191.047 92.9104C189.951 91.8146 189.951 90.0379 191.047 88.9422L209.063 70.9263L227.079 52.9104C228.175 51.8146 229.951 51.8146 231.047 52.9104L249.063 70.9263L267.079 88.9422Z" fill="#C4C4C4"/>
</mask>
<g mask="url(#mask1_527_1924)">
<path d="M189.063 90.9258L269.063 90.9258L229.063 50.9258L189.063 90.9258Z" fill="#FFD0F5"/>
<path d="M269.063 90.9258L189.063 90.9258L229.063 130.926L269.063 90.9258Z" fill="#FF97F1"/>
<path d="M189.063 170.926L229.063 130.926L189.063 90.9258L189.063 170.926Z" fill="#FFD0F5"/>
<path d="M189.063 10.9258L189.063 90.9258L229.063 50.9258L189.063 10.9258Z" fill="#FFD0F5"/>
</g>
</g>
<g filter="url(#filter8_d_527_1924)">
<mask id="mask2_527_1924" style="mask-type:alpha" maskUnits="userSpaceOnUse" x="150" y="92" width="78" height="78">
<path d="M191.121 169.016C190.025 170.112 188.248 170.112 187.153 169.016L169.137 151L151.121 132.984C150.025 131.888 150.025 130.112 151.121 129.016L169.137 111L187.153 92.9841C188.248 91.8883 190.025 91.8883 191.121 92.9841L209.137 111L227.153 129.016C228.248 130.112 228.248 131.888 227.153 132.984L209.137 151L191.121 169.016Z" fill="#C4C4C4"/>
</mask>
<g mask="url(#mask2_527_1924)">
<path d="M189.137 91L189.137 171L229.137 131L189.137 91Z" fill="#FFD0F5"/>
<path d="M189.137 171L189.137 91L149.137 131L189.137 171Z" fill="#FF97F1"/>
<path d="M109.137 91L149.137 131L189.137 91L109.137 91Z" fill="#FFD0F5"/>
<path d="M269.137 91L189.137 91L229.137 131L269.137 91Z" fill="#FFD0F5"/>
</g>
</g>
<g filter="url(#filter9_d_527_1924)">
<mask id="mask3_527_1924" style="mask-type:alpha" maskUnits="userSpaceOnUse" x="110" y="52" width="78" height="78">
<path d="M111.047 93.0578C109.951 91.962 109.951 90.1854 111.047 89.0896L129.063 71.0737L147.079 53.0578C148.175 51.962 149.951 51.962 151.047 53.0579L169.063 71.0737L187.079 89.0896C188.175 90.1854 188.175 91.9621 187.079 93.0579L169.063 111.074L151.047 129.09C149.951 130.185 148.175 130.185 147.079 129.09L129.063 111.074L111.047 93.0578Z" fill="#C4C4C4"/>
</mask>
<g mask="url(#mask3_527_1924)">
<path d="M189.063 91.0742L109.063 91.0742L149.063 131.074L189.063 91.0742Z" fill="#FFD0F5"/>
<path d="M109.063 91.0742L189.063 91.0742L149.063 51.0742L109.063 91.0742Z" fill="#FF97F1"/>
<path d="M189.063 11.0742L149.063 51.0742L189.063 91.0742L189.063 11.0742Z" fill="#FFD0F5"/>
<path d="M189.063 171.074L189.063 91.0742L149.063 131.074L189.063 171.074Z" fill="#FFD0F5"/>
</g>
</g>
<g filter="url(#filter10_d_527_1924)">
<circle cx="189.063" cy="91.0001" r="67.3431" fill="url(#paint0_linear_527_1924)"/>
<circle cx="189.063" cy="91.0001" r="64.5372" fill="url(#paint1_linear_527_1924)"/>
<circle cx="189.063" cy="91.0002" r="54.7163" fill="url(#paint2_linear_527_1924)"/>
<g filter="url(#filter11_i_527_1924)">
<circle cx="189.063" cy="91.0009" r="51.9103" fill="url(#paint3_radial_527_1924)"/>
<circle cx="189.063" cy="91.0009" r="51.9103" fill="url(#paint4_radial_527_1924)"/>
</g>
<path d="M188.234 57.6212C188.631 57.0342 189.495 57.0342 189.892 57.6212L212.058 90.4407C212.287 90.7789 212.287 91.2219 212.058 91.5601L189.892 124.38C189.495 124.967 188.631 124.967 188.234 124.38L166.068 91.5601C165.839 91.2219 165.839 90.7789 166.068 90.4407L188.234 57.6212Z" fill="#7B33D1" fill-opacity="0.49"/>
<path d="M189.062 62.1624L169.814 91.0008H180.813L189.062 78.0235V62.1624Z" fill="url(#paint5_linear_527_1924)"/>
<path d="M208.311 91.0008L189.062 62.1624V78.0235L197.312 91.0008H208.311Z" fill="url(#paint6_linear_527_1924)"/>
<path d="M189.062 119.839L208.311 91.0008H197.312L189.062 103.978V119.839Z" fill="url(#paint7_linear_527_1924)"/>
<path d="M169.814 91.0008L189.062 119.839V103.978L180.813 91.0008H169.814Z" fill="url(#paint8_linear_527_1924)"/>
<path d="M197.312 91.0008L189.062 78.0235L180.813 91.0008L189.062 103.978L197.312 91.0008Z" fill="white"/>
</g>
<ellipse cx="188" cy="171" rx="200.626" ry="24.5522" fill="url(#paint9_radial_527_1924)"/>
<ellipse cx="188" cy="171" rx="129.074" ry="4.91044" fill="url(#paint10_radial_527_1924)"/>
<g filter="url(#filter12_d_527_1924)">
<path d="M43.3653 157.12H48.6933L55.5573 188.656L62.4693 157.12H67.7493L68.4693 196H64.1013L63.6693 167.776L57.0933 196H54.0213L47.4933 167.776L47.0613 196H42.6453L43.3653 157.12ZM74.3328 158.752H79.4688V164.128H74.3328V158.752ZM74.3328 168.256H79.4688V196H74.3328V168.256ZM91.3976 196.384C89.1576 196.384 87.3336 195.68 85.9256 194.272C84.5496 192.864 83.7656 190.976 83.5736 188.608L87.8456 187.312C88.1016 189.104 88.5336 190.432 89.1416 191.296C89.7816 192.16 90.6776 192.592 91.8296 192.592C92.7256 192.592 93.4136 192.336 93.8936 191.824C94.4056 191.28 94.6616 190.56 94.6616 189.664C94.6616 188.864 94.4856 188.144 94.1336 187.504C93.7816 186.864 93.2056 186.208 92.4056 185.536L87.6536 181.456C86.5656 180.528 85.7176 179.552 85.1096 178.528C84.5336 177.472 84.2456 176.192 84.2456 174.688C84.2456 172.544 84.8856 170.88 86.1656 169.696C87.4456 168.48 89.1896 167.872 91.3976 167.872C93.5096 167.872 95.1576 168.56 96.3416 169.936C97.5576 171.28 98.2616 173.024 98.4536 175.168L94.9976 176.464C94.7736 174.896 94.4056 173.712 93.8936 172.912C93.3816 172.08 92.6136 171.664 91.5896 171.664C90.7576 171.664 90.0856 171.936 89.5736 172.48C89.0936 173.024 88.8536 173.696 88.8536 174.496C88.8536 175.52 89.3176 176.448 90.2456 177.28L95.1416 181.792C96.3896 182.944 97.3496 184.08 98.0216 185.2C98.7256 186.32 99.0776 187.68 99.0776 189.28C99.0776 191.584 98.3896 193.344 97.0136 194.56C95.6376 195.776 93.7656 196.384 91.3976 196.384ZM109.351 196.384C107.111 196.384 105.287 195.68 103.879 194.272C102.503 192.864 101.719 190.976 101.527 188.608L105.799 187.312C106.055 189.104 106.487 190.432 107.095 191.296C107.735 192.16 108.631 192.592 109.783 192.592C110.679 192.592 111.367 192.336 111.847 191.824C112.359 191.28 112.615 190.56 112.615 189.664C112.615 188.864 112.439 188.144 112.087 187.504C111.735 186.864 111.159 186.208 110.359 185.536L105.607 181.456C104.519 180.528 103.671 179.552 103.063 178.528C102.487 177.472 102.199 176.192 102.199 174.688C102.199 172.544 102.839 170.88 104.119 169.696C105.399 168.48 107.143 167.872 109.351 167.872C111.463 167.872 113.111 168.56 114.295 169.936C115.511 171.28 116.215 173.024 116.407 175.168L112.951 176.464C112.727 174.896 112.359 173.712 111.847 172.912C111.335 172.08 110.567 171.664 109.543 171.664C108.711 171.664 108.039 171.936 107.527 172.48C107.047 173.024 106.807 173.696 106.807 174.496C106.807 175.52 107.271 176.448 108.199 177.28L113.095 181.792C114.343 182.944 115.303 184.08 115.975 185.2C116.679 186.32 117.031 187.68 117.031 189.28C117.031 191.584 116.343 193.344 114.967 194.56C113.591 195.776 111.719 196.384 109.351 196.384ZM125.864 196.384C124.808 196.384 123.848 196.08 122.984 195.472C122.152 194.864 121.496 194.064 121.016 193.072C120.536 192.08 120.296 191.04 120.296 189.952C120.296 187.776 120.76 186.016 121.688 184.672C122.616 183.296 123.8 182.208 125.24 181.408C126.68 180.608 128.68 179.696 131.24 178.672V176.704C131.24 174.88 131.048 173.6 130.664 172.864C130.312 172.096 129.576 171.712 128.456 171.712C126.504 171.712 125.528 173.024 125.528 175.648V177.04L120.44 176.848C120.504 173.776 121.208 171.52 122.552 170.08C123.896 168.608 125.976 167.872 128.792 167.872C131.448 167.872 133.368 168.608 134.552 170.08C135.768 171.52 136.376 173.712 136.376 176.656V189.328C136.376 191.408 136.536 193.632 136.856 196H132.152C131.8 194.176 131.576 192.816 131.48 191.92C131.096 193.168 130.424 194.224 129.464 195.088C128.536 195.952 127.336 196.384 125.864 196.384ZM127.88 191.968C128.552 191.968 129.208 191.712 129.848 191.2C130.488 190.656 130.952 190.144 131.24 189.664V181.792C129.864 182.56 128.792 183.232 128.024 183.808C127.288 184.352 126.664 184.992 126.152 185.728C125.672 186.464 125.432 187.344 125.432 188.368C125.432 189.52 125.64 190.416 126.056 191.056C126.472 191.664 127.08 191.968 127.88 191.968ZM132.44 162.4C131.8 162.4 131.208 162.288 130.664 162.064C130.152 161.84 129.56 161.52 128.888 161.104C128.248 160.752 127.736 160.496 127.352 160.336C126.968 160.144 126.568 160.048 126.152 160.048C125.576 160.048 125.16 160.208 124.904 160.528C124.648 160.816 124.52 161.312 124.52 162.016H121.592C121.592 158.56 122.872 156.832 125.432 156.832C125.976 156.832 126.488 156.944 126.968 157.168C127.48 157.36 128.056 157.648 128.696 158.032C129.336 158.416 129.848 158.704 130.232 158.896C130.648 159.056 131.08 159.136 131.528 159.136C132.104 159.136 132.504 158.992 132.728 158.704C132.984 158.384 133.112 157.856 133.112 157.12H135.992C135.992 158.752 135.72 160.048 135.176 161.008C134.664 161.936 133.752 162.4 132.44 162.4ZM148.941 196.384C145.997 196.384 143.901 195.52 142.653 193.792C141.437 192.032 140.829 189.488 140.829 186.16V178.096C140.829 174.768 141.437 172.24 142.653 170.512C143.901 168.752 145.997 167.872 148.941 167.872C151.853 167.872 153.917 168.752 155.133 170.512C156.381 172.24 157.005 174.768 157.005 178.096V186.16C157.005 189.488 156.381 192.032 155.133 193.792C153.917 195.52 151.853 196.384 148.941 196.384ZM148.941 192.592C149.869 192.592 150.541 192.32 150.957 191.776C151.373 191.232 151.629 190.56 151.725 189.76C151.821 188.96 151.869 187.872 151.869 186.496V177.808C151.869 176.432 151.821 175.344 151.725 174.544C151.629 173.712 151.373 173.024 150.957 172.48C150.541 171.936 149.869 171.664 148.941 171.664C148.013 171.664 147.325 171.936 146.877 172.48C146.461 173.024 146.205 173.712 146.109 174.544C146.013 175.344 145.965 176.432 145.965 177.808V186.496C145.965 187.872 146.013 188.96 146.109 189.76C146.205 190.56 146.461 191.232 146.877 191.776C147.325 192.32 148.013 192.592 148.941 192.592ZM182.845 196.432C179.005 196.432 176.301 195.296 174.733 193.024C173.165 190.72 172.381 187.552 172.381 183.52V169.792C172.381 165.536 173.149 162.304 174.685 160.096C176.221 157.888 178.941 156.784 182.845 156.784C186.333 156.784 188.829 157.728 190.333 159.616C191.869 161.504 192.637 164.288 192.637 167.968V171.04H187.501V168.304C187.501 166.512 187.421 165.136 187.261 164.176C187.101 163.216 186.685 162.448 186.013 161.872C185.373 161.296 184.333 161.008 182.893 161.008C181.421 161.008 180.317 161.328 179.581 161.968C178.877 162.576 178.413 163.44 178.189 164.56C177.965 165.648 177.853 167.12 177.853 168.976V184.384C177.853 186.368 178.013 187.92 178.333 189.04C178.653 190.16 179.165 190.96 179.869 191.44C180.605 191.92 181.613 192.16 182.893 192.16C184.269 192.16 185.293 191.856 185.965 191.248C186.637 190.64 187.053 189.808 187.213 188.752C187.405 187.696 187.501 186.256 187.501 184.432V181.552H192.637V184.432C192.637 188.304 191.901 191.28 190.429 193.36C188.989 195.408 186.461 196.432 182.845 196.432ZM201.356 196.384C199.852 196.384 198.78 195.84 198.14 194.752C197.5 193.664 197.18 192.32 197.18 190.72V168.256H202.316V189.184C202.316 190.24 202.476 191.04 202.796 191.584C203.116 192.096 203.692 192.352 204.524 192.352C205.548 192.352 206.748 191.776 208.124 190.624V168.256H213.26V196H208.124V193.264C205.916 195.344 203.66 196.384 201.356 196.384ZM218.512 168.256H223.264V170.896C224.192 169.872 225.2 169.104 226.288 168.592C227.408 168.048 228.576 167.776 229.792 167.776C232.16 167.776 233.664 168.944 234.304 171.28C236.224 168.944 238.528 167.776 241.216 167.776C242.656 167.776 243.824 168.304 244.72 169.36C245.648 170.416 246.112 172.032 246.112 174.208V196H241.408V174.544C241.408 173.264 241.2 172.384 240.784 171.904C240.368 171.392 239.776 171.136 239.008 171.136C238.304 171.136 237.568 171.344 236.8 171.76C236.032 172.144 235.328 172.688 234.688 173.392V174.208V196H229.984V174.544C229.984 173.264 229.776 172.384 229.36 171.904C228.944 171.392 228.352 171.136 227.584 171.136C226.912 171.136 226.192 171.344 225.424 171.76C224.656 172.144 223.936 172.688 223.264 173.392V196H218.512V168.256ZM251.137 168.256H256.273V170.464C257.777 168.736 259.537 167.872 261.553 167.872C264.081 167.872 265.761 168.96 266.593 171.136C267.457 173.28 267.889 175.664 267.889 178.288V185.008C267.889 188.4 267.361 191.152 266.305 193.264C265.281 195.344 263.505 196.384 260.977 196.384C259.345 196.384 257.777 195.568 256.273 193.936V205.12H251.137V168.256ZM259.969 192.352C261.153 192.352 261.905 191.76 262.225 190.576C262.577 189.36 262.753 187.504 262.753 185.008V178.288C262.753 176.24 262.561 174.672 262.177 173.584C261.793 172.464 260.993 171.904 259.777 171.904C258.593 171.904 257.425 172.384 256.273 173.344V191.104C257.393 191.936 258.625 192.352 259.969 192.352ZM272.703 168.256H277.839V172.192C278.799 170.624 279.775 169.52 280.767 168.88C281.791 168.24 282.863 167.92 283.983 167.92C284.271 167.92 284.543 167.936 284.799 167.968V173.632C283.775 173.248 282.831 173.056 281.967 173.056C281.135 173.056 280.383 173.264 279.711 173.68C279.071 174.064 278.447 174.752 277.839 175.744V196H272.703V168.256ZM288.317 158.752H293.453V164.128H288.317V158.752ZM288.317 168.256H293.453V196H288.317V168.256ZM305.382 196.384C302.982 196.384 301.222 195.52 300.102 193.792C298.982 192.032 298.422 189.136 298.422 185.104V179.728C298.422 176.048 298.902 173.152 299.862 171.04C300.854 168.928 302.646 167.872 305.238 167.872C306.87 167.872 308.406 168.592 309.846 170.032V157.12H314.982V196H309.846V194.224C308.502 195.664 307.014 196.384 305.382 196.384ZM306.678 192.352C307.702 192.352 308.758 192 309.846 191.296V173.104C308.662 172.304 307.574 171.904 306.582 171.904C304.566 171.904 303.558 173.84 303.558 177.712V185.536C303.558 187.776 303.766 189.472 304.182 190.624C304.598 191.776 305.43 192.352 306.678 192.352ZM325.176 196.384C324.12 196.384 323.16 196.08 322.296 195.472C321.464 194.864 320.808 194.064 320.328 193.072C319.848 192.08 319.608 191.04 319.608 189.952C319.608 187.776 320.072 186.016 321 184.672C321.928 183.296 323.112 182.208 324.552 181.408C325.992 180.608 327.992 179.696 330.552 178.672V176.704C330.552 174.88 330.36 173.6 329.976 172.864C329.624 172.096 328.888 171.712 327.768 171.712C325.816 171.712 324.84 173.024 324.84 175.648V177.04L319.752 176.848C319.816 173.776 320.52 171.52 321.864 170.08C323.208 168.608 325.288 167.872 328.104 167.872C330.76 167.872 332.68 168.608 333.864 170.08C335.08 171.52 335.688 173.712 335.688 176.656V189.328C335.688 191.408 335.848 193.632 336.168 196H331.464C331.112 194.176 330.888 192.816 330.792 191.92C330.408 193.168 329.736 194.224 328.776 195.088C327.848 195.952 326.648 196.384 325.176 196.384ZM327.192 191.968C327.864 191.968 328.52 191.712 329.16 191.2C329.8 190.656 330.264 190.144 330.552 189.664V181.792C329.176 182.56 328.104 183.232 327.336 183.808C326.6 184.352 325.976 184.992 325.464 185.728C324.984 186.464 324.744 187.344 324.744 188.368C324.744 189.52 324.952 190.416 325.368 191.056C325.784 191.664 326.392 191.968 327.192 191.968Z" fill="white"/>
<path d="M43.3653 157.12V155.717C42.6006 155.717 41.9768 156.329 41.9626 157.094L43.3653 157.12ZM48.6933 157.12L50.0642 156.822C49.9239 156.177 49.3532 155.717 48.6933 155.717V157.12ZM55.5573 188.656L54.1865 188.954C54.3267 189.599 54.8968 190.059 55.5563 190.059C56.2158 190.059 56.7866 189.601 56.9278 188.956L55.5573 188.656ZM62.4693 157.12V155.717C61.8102 155.717 61.24 156.176 61.0989 156.82L62.4693 157.12ZM67.7493 157.12L69.1521 157.094C69.1379 156.329 68.5141 155.717 67.7493 155.717V157.12ZM68.4693 196V197.403C68.8459 197.403 69.2067 197.252 69.4705 196.983C69.7344 196.714 69.8791 196.351 69.8721 195.974L68.4693 196ZM64.1013 196L62.6985 196.021C62.7103 196.788 63.3349 197.403 64.1013 197.403V196ZM63.6693 167.776L65.0722 167.755C65.0613 167.046 64.5236 166.457 63.8189 166.381C63.1142 166.305 62.4638 166.767 62.303 167.458L63.6693 167.776ZM57.0933 196V197.403C57.7455 197.403 58.3117 196.954 58.4597 196.318L57.0933 196ZM54.0213 196L52.6545 196.316C52.8016 196.952 53.3683 197.403 54.0213 197.403V196ZM47.4933 167.776L48.8602 167.46C48.7004 166.769 48.0501 166.306 47.3449 166.381C46.6397 166.456 46.1014 167.045 46.0905 167.755L47.4933 167.776ZM47.0613 196V197.403C47.8278 197.403 48.4524 196.788 48.4642 196.021L47.0613 196ZM42.6453 196L41.2426 195.974C41.2356 196.351 41.3803 196.714 41.6441 196.983C41.908 197.252 42.2687 197.403 42.6453 197.403V196ZM43.3653 158.523H48.6933V155.717H43.3653V158.523ZM47.3225 157.418L54.1865 188.954L56.9282 188.358L50.0642 156.822L47.3225 157.418ZM56.9278 188.956L63.8398 157.42L61.0989 156.82L54.1869 188.356L56.9278 188.956ZM62.4693 158.523H67.7493V155.717H62.4693V158.523ZM66.3466 157.146L67.0666 196.026L69.8721 195.974L69.1521 157.094L66.3466 157.146ZM68.4693 194.597H64.1013V197.403H68.4693V194.597ZM65.5042 195.979L65.0722 167.755L62.2665 167.797L62.6985 196.021L65.5042 195.979ZM62.303 167.458L55.727 195.682L58.4597 196.318L65.0357 168.094L62.303 167.458ZM57.0933 194.597H54.0213V197.403H57.0933V194.597ZM55.3882 195.684L48.8602 167.46L46.1265 168.092L52.6545 196.316L55.3882 195.684ZM46.0905 167.755L45.6585 195.979L48.4642 196.021L48.8962 167.797L46.0905 167.755ZM47.0613 194.597H42.6453V197.403H47.0613V194.597ZM44.0481 196.026L44.7681 157.146L41.9626 157.094L41.2426 195.974L44.0481 196.026ZM74.3328 158.752V157.349C73.558 157.349 72.9299 157.977 72.9299 158.752H74.3328ZM79.4688 158.752H80.8718C80.8718 157.977 80.2437 157.349 79.4688 157.349V158.752ZM79.4688 164.128V165.531C80.2437 165.531 80.8718 164.903 80.8718 164.128H79.4688ZM74.3328 164.128H72.9299C72.9299 164.903 73.558 165.531 74.3328 165.531V164.128ZM74.3328 168.256V166.853C73.558 166.853 72.9299 167.481 72.9299 168.256H74.3328ZM79.4688 168.256H80.8718C80.8718 167.481 80.2437 166.853 79.4688 166.853V168.256ZM79.4688 196V197.403C80.2437 197.403 80.8718 196.775 80.8718 196H79.4688ZM74.3328 196H72.9299C72.9299 196.775 73.558 197.403 74.3328 197.403V196ZM74.3328 160.155H79.4688V157.349H74.3328V160.155ZM78.0659 158.752V164.128H80.8718V158.752H78.0659ZM79.4688 162.725H74.3328V165.531H79.4688V162.725ZM75.7358 164.128V158.752H72.9299V164.128H75.7358ZM74.3328 169.659H79.4688V166.853H74.3328V169.659ZM78.0659 168.256V196H80.8718V168.256H78.0659ZM79.4688 194.597H74.3328V197.403H79.4688V194.597ZM75.7358 196V168.256H72.9299V196H75.7358ZM85.9256 194.272L84.9222 195.253C84.926 195.256 84.9297 195.26 84.9335 195.264L85.9256 194.272ZM83.5736 188.608L83.1663 187.265C82.5345 187.457 82.1218 188.063 82.1752 188.721L83.5736 188.608ZM87.8456 187.312L89.2345 187.114C89.1766 186.708 88.9446 186.349 88.5994 186.129C88.2541 185.909 87.83 185.851 87.4383 185.969L87.8456 187.312ZM89.1416 191.296L87.9942 192.103C88.0008 192.113 88.0074 192.122 88.0142 192.131L89.1416 191.296ZM93.8936 191.824L92.8719 190.862L92.8701 190.864L93.8936 191.824ZM94.1336 187.504L92.9043 188.18L94.1336 187.504ZM92.4056 185.536L91.4917 186.6C91.4955 186.604 91.4993 186.607 91.5032 186.61L92.4056 185.536ZM87.6536 181.456L88.5675 180.392L88.5641 180.389L87.6536 181.456ZM85.1096 178.528L83.8779 179.2C83.8861 179.215 83.8945 179.23 83.9032 179.244L85.1096 178.528ZM86.1656 169.696L87.1183 170.726C87.1228 170.722 87.1274 170.717 87.1319 170.713L86.1656 169.696ZM96.3416 169.936L95.2781 170.851C95.2857 170.86 95.2934 170.869 95.3012 170.877L96.3416 169.936ZM98.4536 175.168L98.9462 176.482C99.537 176.26 99.9073 175.671 99.851 175.043L98.4536 175.168ZM94.9976 176.464L93.6087 176.662C93.6688 177.083 93.9165 177.454 94.2822 177.671C94.6479 177.888 95.0922 177.927 95.4902 177.778L94.9976 176.464ZM93.8936 172.912L92.6987 173.647C92.7031 173.654 92.7075 173.661 92.7119 173.668L93.8936 172.912ZM89.5736 172.48L88.5519 171.518C88.5416 171.529 88.5315 171.54 88.5216 171.552L89.5736 172.48ZM90.2456 177.28L91.1964 176.248C91.1917 176.244 91.1869 176.24 91.1821 176.235L90.2456 177.28ZM95.1416 181.792L96.0932 180.761L96.0924 180.76L95.1416 181.792ZM98.0216 185.2L96.8186 185.922C96.8235 185.93 96.8286 185.938 96.8338 185.947L98.0216 185.2ZM97.0136 194.56L96.0845 193.509L97.0136 194.56ZM91.3976 194.981C89.4789 194.981 88.0287 194.391 86.9177 193.28L84.9335 195.264C86.6385 196.969 88.8363 197.787 91.3976 197.787V194.981ZM86.929 193.291C85.8266 192.163 85.1432 190.606 84.972 188.495L82.1752 188.721C82.388 191.346 83.2726 193.565 84.9222 195.253L86.929 193.291ZM83.9809 189.951L88.2529 188.655L87.4383 185.969L83.1663 187.265L83.9809 189.951ZM86.4567 187.51C86.7246 189.386 87.1982 190.972 87.9942 192.103L90.289 190.489C89.869 189.892 89.4786 188.822 89.2345 187.114L86.4567 187.51ZM88.0142 192.131C88.9401 193.381 90.2701 193.995 91.8296 193.995V191.189C91.0851 191.189 90.6231 190.939 90.269 190.461L88.0142 192.131ZM91.8296 193.995C92.9997 193.995 94.103 193.652 94.9171 192.784L92.8701 190.864C92.7242 191.02 92.4515 191.189 91.8296 191.189V193.995ZM94.9152 192.786C95.7195 191.931 96.0646 190.842 96.0646 189.664H93.2586C93.2586 190.278 93.0917 190.629 92.8719 190.862L94.9152 192.786ZM96.0646 189.664C96.0646 188.651 95.8395 187.694 95.3629 186.828L92.9043 188.18C93.1317 188.594 93.2586 189.077 93.2586 189.664H96.0646ZM95.3629 186.828C94.8998 185.986 94.1882 185.201 93.308 184.462L91.5032 186.61C92.223 187.215 92.6634 187.742 92.9043 188.18L95.3629 186.828ZM93.3195 184.472L88.5675 180.392L86.7397 182.52L91.4917 186.6L93.3195 184.472ZM88.5641 180.389C87.5705 179.541 86.8313 178.68 86.316 177.812L83.9032 179.244C84.6039 180.424 85.5607 181.515 86.7431 182.523L88.5641 180.389ZM86.3413 177.856C85.9024 177.052 85.6486 176.015 85.6486 174.688H82.8426C82.8426 176.369 83.1648 177.892 83.8779 179.2L86.3413 177.856ZM85.6486 174.688C85.6486 172.839 86.1893 171.585 87.1183 170.726L85.2129 168.666C83.5819 170.175 82.8426 172.249 82.8426 174.688H85.6486ZM87.1319 170.713C88.0899 169.803 89.4548 169.275 91.3976 169.275V166.469C88.9244 166.469 86.8013 167.157 85.1993 168.679L87.1319 170.713ZM91.3976 169.275C93.175 169.275 94.4054 169.837 95.2781 170.851L97.4051 169.021C95.9098 167.283 93.8442 166.469 91.3976 166.469V169.275ZM95.3012 170.877C96.2764 171.955 96.8861 173.394 97.0562 175.293L99.851 175.043C99.6371 172.654 98.8388 170.605 97.382 168.995L95.3012 170.877ZM97.961 173.854L94.505 175.15L95.4902 177.778L98.9462 176.482L97.961 173.854ZM96.3865 176.266C96.1506 174.615 95.7444 173.201 95.0753 172.156L92.7119 173.668C93.0668 174.223 93.3966 175.177 93.6087 176.662L96.3865 176.266ZM95.0885 172.177C94.3065 170.906 93.0723 170.261 91.5896 170.261V173.067C92.1549 173.067 92.4567 173.254 92.6987 173.647L95.0885 172.177ZM91.5896 170.261C90.4194 170.261 89.3607 170.659 88.5519 171.518L90.5952 173.442C90.8105 173.213 91.0958 173.067 91.5896 173.067V170.261ZM88.5216 171.552C87.7916 172.379 87.4506 173.392 87.4506 174.496H90.2566C90.2566 174 90.3956 173.669 90.6256 173.408L88.5216 171.552ZM87.4506 174.496C87.4506 176.004 88.1541 177.289 89.309 178.325L91.1821 176.235C90.4811 175.607 90.2566 175.036 90.2566 174.496H87.4506ZM89.2948 178.312L94.1908 182.824L96.0924 180.76L91.1964 176.248L89.2948 178.312ZM94.19 182.823C95.3676 183.91 96.2322 184.945 96.8186 185.922L99.2246 184.478C98.4669 183.215 97.4116 181.978 96.0932 180.761L94.19 182.823ZM96.8338 185.947C97.3702 186.8 97.6746 187.888 97.6746 189.28H100.481C100.481 187.472 100.081 185.84 99.2094 184.453L96.8338 185.947ZM97.6746 189.28C97.6746 191.292 97.0854 192.624 96.0845 193.509L97.9426 195.611C99.6938 194.064 100.481 191.876 100.481 189.28H97.6746ZM96.0845 193.509C95.0321 194.439 93.5251 194.981 91.3976 194.981V197.787C94.0061 197.787 96.2431 197.113 97.9426 195.611L96.0845 193.509ZM103.879 194.272L102.875 195.253C102.879 195.256 102.883 195.26 102.887 195.264L103.879 194.272ZM101.527 188.608L101.119 187.265C100.488 187.457 100.075 188.063 100.128 188.721L101.527 188.608ZM105.799 187.312L107.188 187.114C107.13 186.708 106.898 186.349 106.552 186.129C106.207 185.909 105.783 185.851 105.391 185.969L105.799 187.312ZM107.095 191.296L105.947 192.103C105.954 192.113 105.961 192.122 105.967 192.131L107.095 191.296ZM111.847 191.824L110.825 190.862L110.823 190.864L111.847 191.824ZM112.087 187.504L110.857 188.18L112.087 187.504ZM110.359 185.536L109.445 186.6C109.449 186.604 109.452 186.607 109.456 186.61L110.359 185.536ZM105.607 181.456L106.521 180.392L106.517 180.389L105.607 181.456ZM103.063 178.528L101.831 179.2C101.839 179.215 101.848 179.23 101.856 179.244L103.063 178.528ZM104.119 169.696L105.071 170.726C105.076 170.722 105.081 170.717 105.085 170.713L104.119 169.696ZM114.295 169.936L113.231 170.851C113.239 170.86 113.247 170.869 113.254 170.877L114.295 169.936ZM116.407 175.168L116.899 176.482C117.49 176.26 117.86 175.671 117.804 175.043L116.407 175.168ZM112.951 176.464L111.562 176.662C111.622 177.083 111.87 177.454 112.235 177.671C112.601 177.888 113.045 177.927 113.443 177.778L112.951 176.464ZM111.847 172.912L110.652 173.647C110.656 173.654 110.661 173.661 110.665 173.668L111.847 172.912ZM107.527 172.48L106.505 171.518C106.495 171.529 106.485 171.54 106.475 171.552L107.527 172.48ZM108.199 177.28L109.149 176.248C109.145 176.244 109.14 176.24 109.135 176.235L108.199 177.28ZM113.095 181.792L114.046 180.761L114.045 180.76L113.095 181.792ZM115.975 185.2L114.772 185.922C114.777 185.93 114.782 185.938 114.787 185.947L115.975 185.2ZM114.967 194.56L114.038 193.509H114.038L114.967 194.56ZM109.351 194.981C107.432 194.981 105.982 194.391 104.871 193.28L102.887 195.264C104.592 196.969 106.789 197.787 109.351 197.787V194.981ZM104.882 193.291C103.78 192.163 103.096 190.606 102.925 188.495L100.128 188.721C100.341 191.346 101.226 193.565 102.875 195.253L104.882 193.291ZM101.934 189.951L106.206 188.655L105.391 185.969L101.119 187.265L101.934 189.951ZM104.41 187.51C104.678 189.386 105.151 190.972 105.947 192.103L108.242 190.489C107.822 189.892 107.432 188.822 107.188 187.114L104.41 187.51ZM105.967 192.131C106.893 193.381 108.223 193.995 109.783 193.995V191.189C109.038 191.189 108.576 190.939 108.222 190.461L105.967 192.131ZM109.783 193.995C110.953 193.995 112.056 193.652 112.87 192.784L110.823 190.864C110.677 191.02 110.405 191.189 109.783 191.189V193.995ZM112.868 192.786C113.673 191.931 114.018 190.842 114.018 189.664H111.212C111.212 190.278 111.045 190.629 110.825 190.862L112.868 192.786ZM114.018 189.664C114.018 188.651 113.793 187.694 113.316 186.828L110.857 188.18C111.085 188.594 111.212 189.077 111.212 189.664H114.018ZM113.316 186.828C112.853 185.986 112.141 185.201 111.261 184.462L109.456 186.61C110.176 187.215 110.617 187.742 110.857 188.18L113.316 186.828ZM111.273 184.472L106.521 180.392L104.693 182.52L109.445 186.6L111.273 184.472ZM106.517 180.389C105.524 179.541 104.784 178.68 104.269 177.812L101.856 179.244C102.557 180.424 103.514 181.515 104.696 182.523L106.517 180.389ZM104.294 177.856C103.856 177.052 103.602 176.015 103.602 174.688H100.796C100.796 176.369 101.118 177.892 101.831 179.2L104.294 177.856ZM103.602 174.688C103.602 172.839 104.142 171.585 105.071 170.726L103.166 168.666C101.535 170.175 100.796 172.249 100.796 174.688H103.602ZM105.085 170.713C106.043 169.803 107.408 169.275 109.351 169.275V166.469C106.878 166.469 104.754 167.157 103.152 168.679L105.085 170.713ZM109.351 169.275C111.128 169.275 112.359 169.837 113.231 170.851L115.358 169.021C113.863 167.283 111.797 166.469 109.351 166.469V169.275ZM113.254 170.877C114.229 171.955 114.839 173.394 115.009 175.293L117.804 175.043C117.59 172.654 116.792 170.605 115.335 168.995L113.254 170.877ZM115.914 173.854L112.458 175.15L113.443 177.778L116.899 176.482L115.914 173.854ZM114.34 176.266C114.104 174.615 113.698 173.201 113.028 172.156L110.665 173.668C111.02 174.223 111.35 175.177 111.562 176.662L114.34 176.266ZM113.042 172.177C112.26 170.906 111.025 170.261 109.543 170.261V173.067C110.108 173.067 110.41 173.254 110.652 173.647L113.042 172.177ZM109.543 170.261C108.373 170.261 107.314 170.659 106.505 171.518L108.548 173.442C108.764 173.213 109.049 173.067 109.543 173.067V170.261ZM106.475 171.552C105.745 172.379 105.404 173.392 105.404 174.496H108.21C108.21 174 108.349 173.669 108.579 173.408L106.475 171.552ZM105.404 174.496C105.404 176.004 106.107 177.289 107.262 178.325L109.135 176.235C108.434 175.607 108.21 175.036 108.21 174.496H105.404ZM107.248 178.312L112.144 182.824L114.045 180.76L109.149 176.248L107.248 178.312ZM112.143 182.823C113.321 183.91 114.185 184.945 114.772 185.922L117.178 184.478C116.42 183.215 115.365 181.978 114.046 180.761L112.143 182.823ZM114.787 185.947C115.323 186.8 115.628 187.888 115.628 189.28H118.434C118.434 187.472 118.034 185.84 117.163 184.453L114.787 185.947ZM115.628 189.28C115.628 191.292 115.039 192.624 114.038 193.509L115.896 195.611C117.647 194.064 118.434 191.876 118.434 189.28H115.628ZM114.038 193.509C112.985 194.439 111.478 194.981 109.351 194.981V197.787C111.959 197.787 114.196 197.113 115.896 195.611L114.038 193.509ZM122.984 195.472L122.156 196.605C122.163 196.61 122.17 196.615 122.176 196.619L122.984 195.472ZM121.688 184.672L122.842 185.469C122.845 185.465 122.848 185.461 122.851 185.456L121.688 184.672ZM125.24 181.408L125.921 182.634L125.24 181.408ZM131.24 178.672L131.761 179.975C132.294 179.762 132.643 179.246 132.643 178.672H131.24ZM130.664 172.864L129.388 173.449C129.398 173.47 129.409 173.492 129.42 173.513L130.664 172.864ZM125.528 177.04L125.475 178.442C125.856 178.456 126.226 178.315 126.501 178.051C126.776 177.786 126.931 177.421 126.931 177.04H125.528ZM120.44 176.848L119.037 176.819C119.021 177.584 119.622 178.221 120.387 178.25L120.44 176.848ZM122.552 170.08L123.578 171.037C123.581 171.034 123.584 171.03 123.588 171.026L122.552 170.08ZM134.552 170.08L133.459 170.959C133.466 170.968 133.473 170.977 133.48 170.985L134.552 170.08ZM136.856 196V197.403C137.261 197.403 137.646 197.228 137.912 196.923C138.179 196.618 138.3 196.213 138.246 195.812L136.856 196ZM132.152 196L130.774 196.266C130.902 196.926 131.48 197.403 132.152 197.403V196ZM131.48 191.92L132.875 191.771C132.804 191.108 132.277 190.587 131.614 190.523C130.951 190.46 130.335 190.871 130.139 191.507L131.48 191.92ZM129.464 195.088L128.525 194.045C128.519 194.05 128.514 194.056 128.508 194.061L129.464 195.088ZM129.848 191.2L130.724 192.296C130.735 192.287 130.746 192.278 130.756 192.269L129.848 191.2ZM131.24 189.664L132.443 190.386C132.574 190.168 132.643 189.918 132.643 189.664H131.24ZM131.24 181.792H132.643C132.643 181.294 132.379 180.834 131.95 180.582C131.521 180.33 130.991 180.324 130.556 180.567L131.24 181.792ZM128.024 183.808L128.858 184.936L128.866 184.93L128.024 183.808ZM126.152 185.728L125 184.927C124.992 184.938 124.984 184.95 124.977 184.962L126.152 185.728ZM126.056 191.056L124.88 191.821C124.886 191.83 124.892 191.839 124.898 191.848L126.056 191.056ZM130.664 162.064L130.102 163.349C130.111 163.353 130.12 163.357 130.13 163.361L130.664 162.064ZM128.888 161.104L129.626 159.911C129.606 159.898 129.585 159.886 129.564 159.875L128.888 161.104ZM127.352 160.336L126.724 161.591C126.753 161.605 126.783 161.619 126.812 161.631L127.352 160.336ZM124.904 160.528L125.952 161.46C125.969 161.442 125.984 161.423 125.999 161.404L124.904 160.528ZM124.52 162.016V163.419C125.295 163.419 125.923 162.791 125.923 162.016H124.52ZM121.592 162.016H120.189C120.189 162.791 120.817 163.419 121.592 163.419V162.016ZM126.968 157.168L126.375 158.439C126.408 158.455 126.441 158.469 126.475 158.482L126.968 157.168ZM128.696 158.032L127.974 159.235L127.974 159.235L128.696 158.032ZM130.232 158.896L129.604 160.151C129.645 160.171 129.686 160.189 129.728 160.205L130.232 158.896ZM132.728 158.704L131.632 157.828C131.628 157.833 131.624 157.838 131.62 157.843L132.728 158.704ZM133.112 157.12V155.717C132.337 155.717 131.709 156.345 131.709 157.12H133.112ZM135.992 157.12H137.395C137.395 156.345 136.767 155.717 135.992 155.717V157.12ZM135.176 161.008L133.955 160.316C133.953 160.321 133.95 160.326 133.947 160.33L135.176 161.008ZM125.864 194.981C125.097 194.981 124.419 194.766 123.791 194.325L122.176 196.619C123.277 197.394 124.519 197.787 125.864 197.787V194.981ZM123.812 194.339C123.178 193.876 122.666 193.261 122.279 192.461L119.753 193.683C120.326 194.867 121.126 195.852 122.156 196.605L123.812 194.339ZM122.279 192.461C121.89 191.657 121.699 190.826 121.699 189.952H118.893C118.893 191.254 119.182 192.503 119.753 193.683L122.279 192.461ZM121.699 189.952C121.699 187.968 122.122 186.512 122.842 185.469L120.533 183.875C119.398 185.52 118.893 187.584 118.893 189.952H121.699ZM122.851 185.456C123.656 184.262 124.676 183.326 125.921 182.634L124.559 180.182C122.924 181.09 121.575 182.33 120.525 183.888L122.851 185.456ZM125.921 182.634C127.287 181.876 129.225 180.989 131.761 179.975L130.719 177.369C128.135 178.403 126.073 179.34 124.558 180.182L125.921 182.634ZM132.643 178.672V176.704H129.837V178.672H132.643ZM132.643 176.704C132.643 174.863 132.462 173.278 131.908 172.215L129.42 173.513C129.633 173.922 129.837 174.897 129.837 176.704H132.643ZM131.939 172.279C131.282 170.845 129.912 170.309 128.456 170.309V173.115C129.24 173.115 129.342 173.347 129.388 173.449L131.939 172.279ZM128.456 170.309C127.133 170.309 125.94 170.776 125.134 171.859C124.386 172.864 124.125 174.203 124.125 175.648H126.931C126.931 174.469 127.157 173.84 127.386 173.533C127.556 173.304 127.826 173.115 128.456 173.115V170.309ZM124.125 175.648V177.04H126.931V175.648H124.125ZM125.581 175.638L120.493 175.446L120.387 178.25L125.475 178.442L125.581 175.638ZM121.843 176.877C121.903 173.965 122.57 172.116 123.578 171.037L121.526 169.123C119.845 170.924 119.105 173.587 119.037 176.819L121.843 176.877ZM123.588 171.026C124.571 169.949 126.203 169.275 128.792 169.275V166.469C125.749 166.469 123.22 167.267 121.516 169.134L123.588 171.026ZM128.792 169.275C131.204 169.275 132.637 169.938 133.459 170.959L135.645 169.201C134.099 167.278 131.692 166.469 128.792 166.469V169.275ZM133.48 170.985C134.391 172.064 134.973 173.867 134.973 176.656H137.779C137.779 173.557 137.145 170.976 135.624 169.175L133.48 170.985ZM134.973 176.656V189.328H137.779V176.656H134.973ZM134.973 189.328C134.973 191.479 135.138 193.767 135.465 196.188L138.246 195.812C137.933 193.497 137.779 191.337 137.779 189.328H134.973ZM136.856 194.597H132.152V197.403H136.856V194.597ZM133.529 195.734C133.179 193.917 132.964 192.605 132.875 191.771L130.085 192.069C130.187 193.027 130.421 194.435 130.774 196.266L133.529 195.734ZM130.139 191.507C129.829 192.516 129.294 193.353 128.525 194.045L130.402 196.131C131.553 195.095 132.363 193.82 132.821 192.333L130.139 191.507ZM128.508 194.061C127.881 194.645 127.042 194.981 125.864 194.981V197.787C127.63 197.787 129.191 197.259 130.42 196.115L128.508 194.061ZM127.88 193.371C128.936 193.371 129.892 192.961 130.724 192.296L128.971 190.104C128.524 190.463 128.168 190.565 127.88 190.565V193.371ZM130.756 192.269C131.461 191.67 132.047 191.045 132.443 190.386L130.037 188.942C129.856 189.243 129.515 189.642 128.939 190.131L130.756 192.269ZM132.643 189.664V181.792H129.837V189.664H132.643ZM130.556 180.567C129.155 181.349 128.022 182.056 127.182 182.686L128.866 184.93C129.562 184.408 130.573 183.771 131.924 183.017L130.556 180.567ZM127.19 182.68C126.333 183.313 125.601 184.063 125 184.927L127.304 186.529C127.726 185.921 128.242 185.391 128.858 184.936L127.19 182.68ZM124.977 184.962C124.325 185.961 124.029 187.118 124.029 188.368H126.835C126.835 187.57 127.019 186.967 127.327 186.494L124.977 184.962ZM124.029 188.368C124.029 189.662 124.258 190.865 124.88 191.821L127.232 190.291C127.021 189.967 126.835 189.378 126.835 188.368H124.029ZM124.898 191.848C125.601 192.876 126.664 193.371 127.88 193.371V190.565C127.496 190.565 127.343 190.452 127.214 190.264L124.898 191.848ZM132.44 160.997C131.967 160.997 131.558 160.915 131.198 160.767L130.13 163.361C130.857 163.661 131.633 163.803 132.44 163.803V160.997ZM131.226 160.779C130.794 160.59 130.263 160.305 129.626 159.911L128.149 162.297C128.857 162.735 129.51 163.09 130.102 163.349L131.226 160.779ZM129.564 159.875C128.907 159.514 128.344 159.23 127.891 159.041L126.812 161.631C127.127 161.762 127.588 161.99 128.212 162.333L129.564 159.875ZM127.979 159.081C127.407 158.795 126.793 158.645 126.152 158.645V161.451C126.343 161.451 126.529 161.493 126.724 161.591L127.979 159.081ZM126.152 158.645C125.331 158.645 124.426 158.879 123.808 159.652L125.999 161.404C125.982 161.426 125.962 161.445 125.941 161.46C125.922 161.474 125.909 161.478 125.911 161.477C125.919 161.474 125.988 161.451 126.152 161.451V158.645ZM123.855 159.596C123.245 160.282 123.117 161.222 123.117 162.016H125.923C125.923 161.742 125.949 161.566 125.974 161.467C126 161.366 126.013 161.392 125.952 161.46L123.855 159.596ZM124.52 160.613H121.592V163.419H124.52V160.613ZM122.995 162.016C122.995 160.42 123.298 159.478 123.679 158.963C124.002 158.527 124.501 158.235 125.432 158.235V155.429C123.803 155.429 122.381 156.001 121.424 157.293C120.526 158.506 120.189 160.156 120.189 162.016H122.995ZM125.432 158.235C125.777 158.235 126.085 158.304 126.375 158.439L127.561 155.897C126.89 155.584 126.175 155.429 125.432 155.429V158.235ZM126.475 158.482C126.885 158.635 127.383 158.88 127.974 159.235L129.418 156.829C128.729 156.416 128.075 156.085 127.46 155.854L126.475 158.482ZM127.974 159.235C128.626 159.626 129.173 159.935 129.604 160.151L130.859 157.641C130.522 157.473 130.046 157.206 129.418 156.829L127.974 159.235ZM129.728 160.205C130.306 160.428 130.909 160.539 131.528 160.539V157.733C131.251 157.733 130.99 157.684 130.735 157.587L129.728 160.205ZM131.528 160.539C132.284 160.539 133.222 160.354 133.835 159.565L131.62 157.843C131.655 157.798 131.694 157.763 131.728 157.739C131.762 157.716 131.784 157.708 131.785 157.708C131.785 157.708 131.766 157.715 131.722 157.721C131.678 157.728 131.614 157.733 131.528 157.733V160.539ZM133.823 159.58C134.384 158.88 134.515 157.95 134.515 157.12H131.709C131.709 157.413 131.683 157.612 131.652 157.737C131.622 157.864 131.598 157.871 131.632 157.828L133.823 159.58ZM133.112 158.523H135.992V155.717H133.112V158.523ZM134.589 157.12C134.589 158.617 134.336 159.645 133.955 160.316L136.396 161.7C137.104 160.451 137.395 158.887 137.395 157.12H134.589ZM133.947 160.33C133.745 160.698 133.384 160.997 132.44 160.997V163.803C134.12 163.803 135.583 163.174 136.404 161.686L133.947 160.33ZM142.653 193.792L141.499 194.59C141.505 194.598 141.51 194.606 141.516 194.613L142.653 193.792ZM142.653 170.512L141.509 169.7L141.506 169.705L142.653 170.512ZM155.133 170.512L153.979 171.309C153.985 171.318 153.99 171.326 153.996 171.333L155.133 170.512ZM155.133 193.792L153.989 192.98L153.986 192.985L155.133 193.792ZM150.957 191.776L152.072 192.628V192.628L150.957 191.776ZM151.725 189.76L153.118 189.927H153.118L151.725 189.76ZM151.725 174.544L150.332 174.705L150.332 174.711L151.725 174.544ZM150.957 172.48L152.072 171.628L150.957 172.48ZM146.877 172.48L145.794 171.588C145.784 171.601 145.773 171.614 145.763 171.628L146.877 172.48ZM146.109 174.544L147.502 174.711L147.503 174.705L146.109 174.544ZM146.109 189.76L147.502 189.593L146.109 189.76ZM146.877 191.776L145.763 192.628C145.773 192.642 145.784 192.655 145.794 192.668L146.877 191.776ZM148.941 194.981C146.263 194.981 144.683 194.206 143.791 192.971L141.516 194.613C143.12 196.834 145.732 197.787 148.941 197.787V194.981ZM143.808 192.994C142.821 191.566 142.232 189.35 142.232 186.16H139.426C139.426 189.626 140.054 192.498 141.499 194.59L143.808 192.994ZM142.232 186.16V178.096H139.426V186.16H142.232ZM142.232 178.096C142.232 174.903 142.822 172.71 143.801 171.319L141.506 169.705C140.053 171.77 139.426 174.633 139.426 178.096H142.232ZM143.798 171.324C144.693 170.06 146.272 169.275 148.941 169.275V166.469C145.723 166.469 143.109 167.444 141.509 169.7L143.798 171.324ZM148.941 169.275C151.574 169.275 153.114 170.057 153.979 171.309L156.288 169.715C154.721 167.447 152.132 166.469 148.941 166.469V169.275ZM153.996 171.333C154.999 172.722 155.602 174.909 155.602 178.096H158.408C158.408 174.627 157.764 171.758 156.271 169.691L153.996 171.333ZM155.602 178.096V186.16H158.408V178.096H155.602ZM155.602 186.16C155.602 189.345 155 191.555 153.989 192.98L156.278 194.604C157.763 192.509 158.408 189.631 158.408 186.16H155.602ZM153.986 192.985C153.125 194.209 151.584 194.981 148.941 194.981V197.787C152.123 197.787 154.71 196.831 156.281 194.599L153.986 192.985ZM148.941 193.995C150.14 193.995 151.303 193.633 152.072 192.628L149.843 190.924C149.779 191.007 149.599 191.189 148.941 191.189V193.995ZM152.072 192.628C152.665 191.852 152.998 190.932 153.118 189.927L150.332 189.593C150.261 190.188 150.081 190.612 149.843 190.924L152.072 192.628ZM153.118 189.927C153.224 189.046 153.272 187.895 153.272 186.496H150.466C150.466 187.849 150.419 188.874 150.332 189.593L153.118 189.927ZM153.272 186.496V177.808H150.466V186.496H153.272ZM153.272 177.808C153.272 176.409 153.224 175.258 153.118 174.377L150.332 174.711C150.419 175.43 150.466 176.455 150.466 177.808H153.272ZM153.119 174.383C153.001 173.356 152.673 172.413 152.072 171.628L149.843 173.332C150.074 173.635 150.258 174.068 150.332 174.705L153.119 174.383ZM152.072 171.628C151.303 170.623 150.14 170.261 148.941 170.261V173.067C149.599 173.067 149.779 173.249 149.843 173.332L152.072 171.628ZM148.941 170.261C147.736 170.261 146.588 170.625 145.794 171.588L147.96 173.372C148.063 173.247 148.29 173.067 148.941 173.067V170.261ZM145.763 171.628C145.162 172.413 144.834 173.356 144.716 174.383L147.503 174.705C147.577 174.068 147.761 173.635 147.992 173.332L145.763 171.628ZM144.716 174.377C144.611 175.258 144.562 176.409 144.562 177.808H147.368C147.368 176.455 147.416 175.43 147.502 174.711L144.716 174.377ZM144.562 177.808V186.496H147.368V177.808H144.562ZM144.562 186.496C144.562 187.895 144.611 189.046 144.716 189.927L147.502 189.593C147.416 188.874 147.368 187.849 147.368 186.496H144.562ZM144.716 189.927C144.837 190.932 145.169 191.852 145.763 192.628L147.992 190.924C147.753 190.612 147.574 190.188 147.502 189.593L144.716 189.927ZM145.794 192.668C146.588 193.631 147.736 193.995 148.941 193.995V191.189C148.29 191.189 148.063 191.009 147.96 190.884L145.794 192.668ZM174.733 193.024L173.573 193.813L173.578 193.821L174.733 193.024ZM174.685 160.096L173.533 159.295L174.685 160.096ZM190.333 159.616L189.235 160.49C189.238 160.494 189.241 160.498 189.244 160.501L190.333 159.616ZM192.637 171.04V172.443C193.412 172.443 194.04 171.815 194.04 171.04H192.637ZM187.501 171.04H186.098C186.098 171.815 186.726 172.443 187.501 172.443V171.04ZM187.261 164.176L188.645 163.945L187.261 164.176ZM186.013 161.872L185.074 162.915C185.083 162.922 185.091 162.93 185.1 162.937L186.013 161.872ZM179.581 161.968L180.498 163.03L180.501 163.027L179.581 161.968ZM178.189 164.56L179.563 164.843L179.564 164.835L178.189 164.56ZM178.333 189.04L179.682 188.655L178.333 189.04ZM179.869 191.44L179.078 192.599C179.086 192.605 179.094 192.61 179.102 192.615L179.869 191.44ZM185.965 191.248L186.906 192.288L185.965 191.248ZM187.213 188.752L185.832 188.501C185.83 188.515 185.828 188.528 185.826 188.542L187.213 188.752ZM187.501 181.552V180.149C186.726 180.149 186.098 180.777 186.098 181.552H187.501ZM192.637 181.552H194.04C194.04 180.777 193.412 180.149 192.637 180.149V181.552ZM190.429 193.36L189.284 192.55L189.281 192.553L190.429 193.36ZM182.845 195.029C179.27 195.029 177.099 193.983 175.887 192.227L173.578 193.821C175.502 196.609 178.739 197.835 182.845 197.835V195.029ZM175.893 192.235C174.539 190.246 173.784 187.39 173.784 183.52H170.978C170.978 187.714 171.79 191.194 173.573 193.813L175.893 192.235ZM173.784 183.52V169.792H170.978V183.52H173.784ZM173.784 169.792C173.784 165.669 174.534 162.769 175.836 160.897L173.533 159.295C171.763 161.839 170.978 165.403 170.978 169.792H173.784ZM175.836 160.897C177.005 159.217 179.179 158.187 182.845 158.187V155.381C178.702 155.381 175.436 156.559 173.533 159.295L175.836 160.897ZM182.845 158.187C186.103 158.187 188.1 159.065 189.235 160.49L191.43 158.742C189.557 156.391 186.562 155.381 182.845 155.381V158.187ZM189.244 160.501C190.496 162.039 191.234 164.453 191.234 167.968H194.04C194.04 164.123 193.242 160.969 191.421 158.731L189.244 160.501ZM191.234 167.968V171.04H194.04V167.968H191.234ZM192.637 169.637H187.501V172.443H192.637V169.637ZM188.904 171.04V168.304H186.098V171.04H188.904ZM188.904 168.304C188.904 166.488 188.824 165.02 188.645 163.945L185.877 164.407C186.018 165.252 186.098 166.536 186.098 168.304H188.904ZM188.645 163.945C188.436 162.695 187.873 161.619 186.926 160.807L185.1 162.937C185.496 163.277 185.765 163.737 185.877 164.407L188.645 163.945ZM186.951 160.829C185.928 159.909 184.463 159.605 182.893 159.605V162.411C184.203 162.411 184.817 162.683 185.074 162.915L186.951 160.829ZM182.893 159.605C181.249 159.605 179.754 159.958 178.66 160.909L180.501 163.027C180.88 162.698 181.593 162.411 182.893 162.411V159.605ZM178.664 160.906C177.674 161.761 177.084 162.93 176.813 164.285L179.564 164.835C179.742 163.95 180.08 163.391 180.498 163.03L178.664 160.906ZM176.815 164.277C176.563 165.499 176.45 167.079 176.45 168.976H179.256C179.256 167.161 179.367 165.797 179.563 164.843L176.815 164.277ZM176.45 168.976V184.384H179.256V168.976H176.45ZM176.45 184.384C176.45 186.421 176.611 188.123 176.984 189.425L179.682 188.655C179.414 187.717 179.256 186.315 179.256 184.384H176.45ZM176.984 189.425C177.361 190.745 178.019 191.877 179.078 192.599L180.659 190.281C180.311 190.043 179.945 189.575 179.682 188.655L176.984 189.425ZM179.102 192.615C180.148 193.297 181.458 193.563 182.893 193.563V190.757C181.767 190.757 181.061 190.543 180.635 190.265L179.102 192.615ZM182.893 193.563C184.442 193.563 185.871 193.225 186.906 192.288L185.023 190.208C184.715 190.487 184.096 190.757 182.893 190.757V193.563ZM186.906 192.288C187.859 191.426 188.4 190.278 188.6 188.962L185.826 188.542C185.705 189.338 185.414 189.854 185.023 190.208L186.906 192.288ZM188.593 189.003C188.807 187.827 188.904 186.291 188.904 184.432H186.098C186.098 186.221 186.002 187.565 185.832 188.501L188.593 189.003ZM188.904 184.432V181.552H186.098V184.432H188.904ZM187.501 182.955H192.637V180.149H187.501V182.955ZM191.234 181.552V184.432H194.04V181.552H191.234ZM191.234 184.432C191.234 188.155 190.521 190.801 189.284 192.55L191.574 194.17C193.28 191.759 194.04 188.453 194.04 184.432H191.234ZM189.281 192.553C188.207 194.08 186.22 195.029 182.845 195.029V197.835C186.701 197.835 189.77 196.736 191.576 194.167L189.281 192.553ZM198.14 194.752L196.931 195.463L198.14 194.752ZM197.18 168.256V166.853C196.405 166.853 195.777 167.481 195.777 168.256H197.18ZM202.316 168.256H203.719C203.719 167.481 203.091 166.853 202.316 166.853V168.256ZM202.796 191.584L201.587 192.295C201.593 192.306 201.599 192.317 201.606 192.328L202.796 191.584ZM208.124 190.624L209.024 191.7C209.343 191.433 209.527 191.039 209.527 190.624H208.124ZM208.124 168.256V166.853C207.349 166.853 206.721 167.481 206.721 168.256H208.124ZM213.26 168.256H214.663C214.663 167.481 214.035 166.853 213.26 166.853V168.256ZM213.26 196V197.403C214.035 197.403 214.663 196.775 214.663 196H213.26ZM208.124 196H206.721C206.721 196.775 207.349 197.403 208.124 197.403V196ZM208.124 193.264H209.527C209.527 192.704 209.194 192.198 208.68 191.976C208.166 191.754 207.569 191.859 207.162 192.243L208.124 193.264ZM201.356 194.981C200.237 194.981 199.685 194.611 199.349 194.041L196.931 195.463C197.875 197.069 199.467 197.787 201.356 197.787V194.981ZM199.349 194.041C198.866 193.219 198.583 192.136 198.583 190.72H195.777C195.777 192.504 196.134 194.109 196.931 195.463L199.349 194.041ZM198.583 190.72V168.256H195.777V190.72H198.583ZM197.18 169.659H202.316V166.853H197.18V169.659ZM200.913 168.256V189.184H203.719V168.256H200.913ZM200.913 189.184C200.913 190.341 201.081 191.436 201.587 192.295L204.005 190.873C203.871 190.644 203.719 190.139 203.719 189.184H200.913ZM201.606 192.328C202.274 193.396 203.411 193.755 204.524 193.755V190.949C204.244 190.949 204.099 190.905 204.038 190.878C203.993 190.858 203.991 190.848 203.986 190.84L201.606 192.328ZM204.524 193.755C206.047 193.755 207.567 192.92 209.024 191.7L207.223 189.548C205.928 190.632 205.049 190.949 204.524 190.949V193.755ZM209.527 190.624V168.256H206.721V190.624H209.527ZM208.124 169.659H213.26V166.853H208.124V169.659ZM211.857 168.256V196H214.663V168.256H211.857ZM213.26 194.597H208.124V197.403H213.26V194.597ZM209.527 196V193.264H206.721V196H209.527ZM207.162 192.243C205.129 194.157 203.201 194.981 201.356 194.981V197.787C204.119 197.787 206.702 196.531 209.086 194.285L207.162 192.243ZM218.512 168.256V166.853C217.738 166.853 217.109 167.481 217.109 168.256H218.512ZM223.264 168.256H224.667C224.667 167.481 224.039 166.853 223.264 166.853V168.256ZM223.264 170.896H221.861C221.861 171.476 222.218 171.996 222.76 172.205C223.301 172.414 223.915 172.268 224.304 171.838L223.264 170.896ZM226.288 168.592L226.886 169.861C226.891 169.859 226.896 169.857 226.901 169.854L226.288 168.592ZM234.304 171.28L232.951 171.651C233.09 172.156 233.499 172.543 234.012 172.652C234.524 172.762 235.055 172.576 235.388 172.171L234.304 171.28ZM244.72 169.36L243.651 170.268C243.656 170.274 243.661 170.28 243.667 170.286L244.72 169.36ZM246.112 196V197.403C246.887 197.403 247.515 196.775 247.515 196H246.112ZM241.408 196H240.005C240.005 196.775 240.634 197.403 241.408 197.403V196ZM240.784 171.904L239.696 172.789C239.705 172.8 239.715 172.812 239.724 172.823L240.784 171.904ZM236.8 171.76L237.428 173.015C237.442 173.008 237.455 173.001 237.469 172.994L236.8 171.76ZM234.688 173.392L233.65 172.448C233.416 172.707 233.285 173.043 233.285 173.392H234.688ZM234.688 196V197.403C235.463 197.403 236.091 196.775 236.091 196H234.688ZM229.984 196H228.581C228.581 196.775 229.21 197.403 229.984 197.403V196ZM229.36 171.904L228.272 172.789C228.281 172.8 228.291 172.812 228.3 172.823L229.36 171.904ZM225.424 171.76L226.052 173.015C226.066 173.008 226.079 173.001 226.093 172.994L225.424 171.76ZM223.264 173.392L222.25 172.423C222 172.684 221.861 173.031 221.861 173.392H223.264ZM223.264 196V197.403C224.039 197.403 224.667 196.775 224.667 196H223.264ZM218.512 196H217.109C217.109 196.775 217.738 197.403 218.512 197.403V196ZM218.512 169.659H223.264V166.853H218.512V169.659ZM221.861 168.256V170.896H224.667V168.256H221.861ZM224.304 171.838C225.126 170.931 225.989 170.284 226.886 169.861L225.691 167.323C224.412 167.924 223.259 168.813 222.225 169.954L224.304 171.838ZM226.901 169.854C227.835 169.4 228.794 169.179 229.792 169.179V166.373C228.359 166.373 226.982 166.696 225.676 167.33L226.901 169.854ZM229.792 169.179C230.742 169.179 231.385 169.41 231.836 169.76C232.29 170.113 232.69 170.695 232.951 171.651L235.658 170.909C235.279 169.529 234.607 168.359 233.557 167.544C232.504 166.726 231.211 166.373 229.792 166.373V169.179ZM235.388 172.171C237.079 170.113 239.004 169.179 241.216 169.179V166.373C238.053 166.373 235.37 167.775 233.221 170.389L235.388 172.171ZM241.216 169.179C242.263 169.179 243.033 169.54 243.651 170.268L245.79 168.452C244.616 167.068 243.05 166.373 241.216 166.373V169.179ZM243.667 170.286C244.274 170.978 244.709 172.194 244.709 174.208H247.515C247.515 171.87 247.023 169.854 245.774 168.434L243.667 170.286ZM244.709 174.208V196H247.515V174.208H244.709ZM246.112 194.597H241.408V197.403H246.112V194.597ZM242.811 196V174.544H240.005V196H242.811ZM242.811 174.544C242.811 173.217 242.617 171.877 241.845 170.985L239.724 172.823C239.784 172.891 240.005 173.311 240.005 174.544H242.811ZM241.873 171.019C241.146 170.124 240.121 169.733 239.008 169.733V172.539C239.432 172.539 239.591 172.66 239.696 172.789L241.873 171.019ZM239.008 169.733C238.021 169.733 237.057 170.026 236.132 170.526L237.469 172.994C238.08 172.662 238.588 172.539 239.008 172.539V169.733ZM236.173 170.505C235.234 170.975 234.394 171.63 233.65 172.448L235.727 174.336C236.263 173.746 236.831 173.313 237.428 173.015L236.173 170.505ZM233.285 173.392V174.208H236.091V173.392H233.285ZM233.285 174.208V196H236.091V174.208H233.285ZM234.688 194.597H229.984V197.403H234.688V194.597ZM231.387 196V174.544H228.581V196H231.387ZM231.387 174.544C231.387 173.217 231.193 171.877 230.421 170.985L228.3 172.823C228.36 172.891 228.581 173.311 228.581 174.544H231.387ZM230.449 171.019C229.722 170.124 228.697 169.733 227.584 169.733V172.539C228.008 172.539 228.167 172.66 228.272 172.789L230.449 171.019ZM227.584 169.733C226.62 169.733 225.67 170.032 224.756 170.526L226.093 172.994C226.715 172.656 227.205 172.539 227.584 172.539V169.733ZM224.797 170.505C223.866 170.97 223.019 171.618 222.25 172.423L224.279 174.361C224.854 173.758 225.447 173.318 226.052 173.015L224.797 170.505ZM221.861 173.392V196H224.667V173.392H221.861ZM223.264 194.597H218.512V197.403H223.264V194.597ZM219.915 196V168.256H217.109V196H219.915ZM251.137 168.256V166.853C250.363 166.853 249.734 167.481 249.734 168.256H251.137ZM256.273 168.256H257.676C257.676 167.481 257.048 166.853 256.273 166.853V168.256ZM256.273 170.464H254.87C254.87 171.049 255.234 171.573 255.782 171.778C256.33 171.983 256.948 171.826 257.332 171.385L256.273 170.464ZM266.593 171.136L265.283 171.637C265.286 171.645 265.289 171.653 265.292 171.66L266.593 171.136ZM266.305 193.264L265.051 192.637L265.047 192.644L266.305 193.264ZM256.273 193.936L257.305 192.985C256.914 192.56 256.301 192.419 255.763 192.629C255.225 192.839 254.87 193.358 254.87 193.936H256.273ZM256.273 205.12V206.523C257.048 206.523 257.676 205.895 257.676 205.12H256.273ZM251.137 205.12H249.734C249.734 205.895 250.363 206.523 251.137 206.523V205.12ZM262.225 190.576L260.878 190.186C260.876 190.194 260.873 190.202 260.871 190.21L262.225 190.576ZM262.177 173.584L260.85 174.039L260.854 174.051L262.177 173.584ZM256.273 173.344L255.375 172.266C255.055 172.533 254.87 172.928 254.87 173.344H256.273ZM256.273 191.104H254.87C254.87 191.548 255.081 191.966 255.437 192.23L256.273 191.104ZM251.137 169.659H256.273V166.853H251.137V169.659ZM254.87 168.256V170.464H257.676V168.256H254.87ZM257.332 171.385C258.61 169.917 260.001 169.275 261.553 169.275V166.469C259.074 166.469 256.945 167.555 255.215 169.543L257.332 171.385ZM261.553 169.275C262.618 169.275 263.387 169.503 263.947 169.866C264.498 170.222 264.955 170.78 265.283 171.637L267.904 170.635C267.4 169.316 266.601 168.242 265.472 167.51C264.352 166.785 263.017 166.469 261.553 166.469V169.275ZM265.292 171.66C266.081 173.617 266.486 175.82 266.486 178.288H269.292C269.292 175.508 268.834 172.943 267.895 170.612L265.292 171.66ZM266.486 178.288V185.008H269.292V178.288H266.486ZM266.486 185.008C266.486 188.271 265.976 190.786 265.051 192.637L267.56 193.891C268.747 191.518 269.292 188.529 269.292 185.008H266.486ZM265.047 192.644C264.64 193.47 264.118 194.029 263.497 194.393C262.868 194.762 262.049 194.981 260.977 194.981V197.787C262.434 197.787 263.767 197.486 264.914 196.815C266.069 196.139 266.947 195.138 267.564 193.884L265.047 192.644ZM260.977 194.981C259.863 194.981 258.643 194.437 257.305 192.985L255.242 194.887C256.912 196.699 258.828 197.787 260.977 197.787V194.981ZM254.87 193.936V205.12H257.676V193.936H254.87ZM256.273 203.717H251.137V206.523H256.273V203.717ZM252.54 205.12V168.256H249.734V205.12H252.54ZM259.969 193.755C260.8 193.755 261.612 193.544 262.289 193.01C262.962 192.481 263.363 191.743 263.58 190.942L260.871 190.21C260.768 190.593 260.633 190.743 260.554 190.806C260.479 190.864 260.323 190.949 259.969 190.949V193.755ZM263.573 190.966C263.982 189.553 264.156 187.534 264.156 185.008H261.35C261.35 187.474 261.173 189.167 260.878 190.186L263.573 190.966ZM264.156 185.008V178.288H261.35V185.008H264.156ZM264.156 178.288C264.156 176.184 263.963 174.429 263.5 173.117L260.854 174.051C261.16 174.915 261.35 176.296 261.35 178.288H264.156ZM263.505 173.129C263.237 172.349 262.785 171.659 262.094 171.175C261.406 170.693 260.602 170.501 259.777 170.501V173.307C260.169 173.307 260.373 173.395 260.485 173.473C260.594 173.549 260.734 173.699 260.85 174.039L263.505 173.129ZM259.777 170.501C258.186 170.501 256.711 171.153 255.375 172.266L257.172 174.422C258.14 173.615 259.001 173.307 259.777 173.307V170.501ZM254.87 173.344V191.104H257.676V173.344H254.87ZM255.437 192.23C256.789 193.235 258.312 193.755 259.969 193.755V190.949C258.939 190.949 257.998 190.637 257.11 189.978L255.437 192.23ZM272.703 168.256V166.853C271.928 166.853 271.3 167.481 271.3 168.256H272.703ZM277.839 168.256H279.242C279.242 167.481 278.614 166.853 277.839 166.853V168.256ZM277.839 172.192H276.436C276.436 172.82 276.854 173.372 277.459 173.542C278.064 173.713 278.708 173.46 279.036 172.925L277.839 172.192ZM280.767 168.88L280.024 167.69C280.018 167.694 280.012 167.697 280.007 167.701L280.767 168.88ZM284.799 167.968H286.202C286.202 167.26 285.675 166.664 284.973 166.576L284.799 167.968ZM284.799 173.632L284.307 174.946C284.738 175.107 285.22 175.047 285.598 174.785C285.977 174.523 286.202 174.092 286.202 173.632H284.799ZM279.711 173.68L280.433 174.883C280.439 174.88 280.444 174.876 280.45 174.873L279.711 173.68ZM277.839 175.744L276.643 175.011C276.508 175.231 276.436 175.485 276.436 175.744H277.839ZM277.839 196V197.403C278.614 197.403 279.242 196.775 279.242 196H277.839ZM272.703 196H271.3C271.3 196.775 271.928 197.403 272.703 197.403V196ZM272.703 169.659H277.839V166.853H272.703V169.659ZM276.436 168.256V172.192H279.242V168.256H276.436ZM279.036 172.925C279.941 171.446 280.784 170.539 281.528 170.059L280.007 167.701C278.766 168.501 277.658 169.802 276.643 171.459L279.036 172.925ZM281.511 170.07C282.33 169.558 283.147 169.323 283.983 169.323V166.517C282.58 166.517 281.253 166.922 280.024 167.69L281.511 170.07ZM283.983 169.323C284.22 169.323 284.433 169.336 284.625 169.36L284.973 166.576C284.653 166.536 284.323 166.517 283.983 166.517V169.323ZM283.396 167.968V173.632H286.202V167.968H283.396ZM285.292 172.318C284.151 171.89 283.038 171.653 281.967 171.653V174.459C282.625 174.459 283.4 174.606 284.307 174.946L285.292 172.318ZM281.967 171.653C280.889 171.653 279.879 171.926 278.973 172.487L280.45 174.873C280.888 174.602 281.382 174.459 281.967 174.459V171.653ZM278.99 172.477C278.077 173.024 277.31 173.924 276.643 175.011L279.036 176.477C279.585 175.58 280.065 175.104 280.433 174.883L278.99 172.477ZM276.436 175.744V196H279.242V175.744H276.436ZM277.839 194.597H272.703V197.403H277.839V194.597ZM274.106 196V168.256H271.3V196H274.106ZM288.317 158.752V157.349C287.542 157.349 286.914 157.977 286.914 158.752H288.317ZM293.453 158.752H294.856C294.856 157.977 294.228 157.349 293.453 157.349V158.752ZM293.453 164.128V165.531C294.228 165.531 294.856 164.903 294.856 164.128H293.453ZM288.317 164.128H286.914C286.914 164.903 287.542 165.531 288.317 165.531V164.128ZM288.317 168.256V166.853C287.542 166.853 286.914 167.481 286.914 168.256H288.317ZM293.453 168.256H294.856C294.856 167.481 294.228 166.853 293.453 166.853V168.256ZM293.453 196V197.403C294.228 197.403 294.856 196.775 294.856 196H293.453ZM288.317 196H286.914C286.914 196.775 287.542 197.403 288.317 197.403V196ZM288.317 160.155H293.453V157.349H288.317V160.155ZM292.05 158.752V164.128H294.856V158.752H292.05ZM293.453 162.725H288.317V165.531H293.453V162.725ZM289.72 164.128V158.752H286.914V164.128H289.72ZM288.317 169.659H293.453V166.853H288.317V169.659ZM292.05 168.256V196H294.856V168.256H292.05ZM293.453 194.597H288.317V197.403H293.453V194.597ZM289.72 196V168.256H286.914V196H289.72ZM300.102 193.792L298.918 194.545L298.925 194.555L300.102 193.792ZM299.862 171.04L298.592 170.444C298.59 170.449 298.587 170.454 298.585 170.459L299.862 171.04ZM309.846 170.032L308.854 171.024C309.255 171.425 309.859 171.545 310.383 171.328C310.907 171.111 311.249 170.599 311.249 170.032H309.846ZM309.846 157.12V155.717C309.071 155.717 308.443 156.345 308.443 157.12H309.846ZM314.982 157.12H316.385C316.385 156.345 315.757 155.717 314.982 155.717V157.12ZM314.982 196V197.403C315.757 197.403 316.385 196.775 316.385 196H314.982ZM309.846 196H308.443C308.443 196.775 309.071 197.403 309.846 197.403V196ZM309.846 194.224H311.249C311.249 193.648 310.897 193.13 310.36 192.919C309.824 192.707 309.214 192.845 308.82 193.267L309.846 194.224ZM309.846 191.296L310.608 192.474C311.008 192.215 311.249 191.772 311.249 191.296H309.846ZM309.846 173.104H311.249C311.249 172.638 311.018 172.202 310.631 171.942L309.846 173.104ZM304.182 190.624L302.862 191.101L304.182 190.624ZM305.382 194.981C303.366 194.981 302.094 194.287 301.279 193.029L298.925 194.555C300.35 196.753 302.598 197.787 305.382 197.787V194.981ZM301.286 193.039C300.39 191.631 299.825 189.077 299.825 185.104H297.019C297.019 189.195 297.574 192.433 298.918 194.545L301.286 193.039ZM299.825 185.104V179.728H297.019V185.104H299.825ZM299.825 179.728C299.825 176.144 300.297 173.474 301.139 171.621L298.585 170.459C297.507 172.83 297.019 175.952 297.019 179.728H299.825ZM301.132 171.636C301.523 170.804 302.039 170.24 302.662 169.873C303.295 169.5 304.131 169.275 305.238 169.275V166.469C303.753 166.469 302.397 166.772 301.238 167.455C300.069 168.144 299.193 169.164 298.592 170.444L301.132 171.636ZM305.238 169.275C306.411 169.275 307.608 169.778 308.854 171.024L310.838 169.04C309.204 167.406 307.329 166.469 305.238 166.469V169.275ZM311.249 170.032V157.12H308.443V170.032H311.249ZM309.846 158.523H314.982V155.717H309.846V158.523ZM313.579 157.12V196H316.385V157.12H313.579ZM314.982 194.597H309.846V197.403H314.982V194.597ZM311.249 196V194.224H308.443V196H311.249ZM308.82 193.267C307.682 194.486 306.546 194.981 305.382 194.981V197.787C307.482 197.787 309.322 196.842 310.872 195.181L308.82 193.267ZM306.678 193.755C308.036 193.755 309.353 193.286 310.608 192.474L309.084 190.118C308.163 190.714 307.368 190.949 306.678 190.949V193.755ZM311.249 191.296V173.104H308.443V191.296H311.249ZM310.631 171.942C309.313 171.051 307.952 170.501 306.582 170.501V173.307C307.196 173.307 308.011 173.557 309.061 174.266L310.631 171.942ZM306.582 170.501C305.844 170.501 305.133 170.682 304.503 171.085C303.878 171.485 303.41 172.053 303.07 172.708C302.409 173.976 302.155 175.7 302.155 177.712H304.961C304.961 175.852 305.211 174.672 305.558 174.004C305.721 173.691 305.884 173.533 306.015 173.449C306.141 173.368 306.312 173.307 306.582 173.307V170.501ZM302.155 177.712V185.536H304.961V177.712H302.155ZM302.155 185.536C302.155 187.827 302.363 189.718 302.862 191.101L305.502 190.147C305.169 189.226 304.961 187.725 304.961 185.536H302.155ZM302.862 191.101C303.148 191.892 303.617 192.587 304.319 193.074C305.02 193.558 305.836 193.755 306.678 193.755V190.949C306.272 190.949 306.048 190.858 305.917 190.766C305.787 190.677 305.632 190.508 305.502 190.147L302.862 191.101ZM322.296 195.472L321.469 196.605C321.475 196.61 321.482 196.615 321.489 196.619L322.296 195.472ZM321 184.672L322.155 185.469C322.158 185.465 322.161 185.461 322.164 185.456L321 184.672ZM324.552 181.408L325.234 182.634L324.552 181.408ZM330.552 178.672L331.073 179.975C331.606 179.762 331.955 179.246 331.955 178.672H330.552ZM329.976 172.864L328.701 173.449C328.711 173.47 328.721 173.492 328.732 173.513L329.976 172.864ZM324.84 177.04L324.787 178.442C325.168 178.456 325.539 178.315 325.814 178.051C326.088 177.786 326.243 177.421 326.243 177.04H324.84ZM319.752 176.848L318.35 176.819C318.334 177.584 318.934 178.221 319.699 178.25L319.752 176.848ZM321.864 170.08L322.89 171.037C322.893 171.034 322.897 171.03 322.9 171.026L321.864 170.08ZM333.864 170.08L332.771 170.959C332.778 170.968 332.785 170.977 332.792 170.985L333.864 170.08ZM336.168 196V197.403C336.573 197.403 336.958 197.228 337.225 196.923C337.491 196.618 337.613 196.213 337.559 195.812L336.168 196ZM331.464 196L330.087 196.266C330.214 196.926 330.792 197.403 331.464 197.403V196ZM330.792 191.92L332.187 191.771C332.116 191.108 331.59 190.587 330.927 190.523C330.264 190.46 329.647 190.871 329.451 191.507L330.792 191.92ZM328.776 195.088L327.838 194.045C327.832 194.05 327.826 194.056 327.82 194.061L328.776 195.088ZM329.16 191.2L330.037 192.296C330.048 192.287 330.058 192.278 330.069 192.269L329.16 191.2ZM330.552 189.664L331.755 190.386C331.886 190.168 331.955 189.918 331.955 189.664H330.552ZM330.552 181.792H331.955C331.955 181.294 331.692 180.834 331.263 180.582C330.834 180.33 330.303 180.324 329.869 180.567L330.552 181.792ZM327.336 183.808L328.17 184.936L328.178 184.93L327.336 183.808ZM325.464 185.728L324.313 184.927C324.305 184.938 324.297 184.95 324.289 184.962L325.464 185.728ZM325.368 191.056L324.192 191.821C324.198 191.83 324.204 191.839 324.21 191.848L325.368 191.056ZM325.176 194.981C324.41 194.981 323.731 194.766 323.104 194.325L321.489 196.619C322.589 197.394 323.831 197.787 325.176 197.787V194.981ZM323.124 194.339C322.491 193.876 321.978 193.261 321.591 192.461L319.065 193.683C319.638 194.867 320.438 195.852 321.469 196.605L323.124 194.339ZM321.591 192.461C321.202 191.657 321.011 190.826 321.011 189.952H318.205C318.205 191.254 318.494 192.503 319.065 193.683L321.591 192.461ZM321.011 189.952C321.011 187.968 321.435 186.512 322.155 185.469L319.846 183.875C318.71 185.52 318.205 187.584 318.205 189.952H321.011ZM322.164 185.456C322.969 184.262 323.988 183.326 325.234 182.634L323.871 180.182C322.236 181.09 320.888 182.33 319.837 183.888L322.164 185.456ZM325.234 182.634C326.599 181.876 328.537 180.989 331.073 179.975L330.031 177.369C327.448 178.403 325.386 179.34 323.871 180.182L325.234 182.634ZM331.955 178.672V176.704H329.149V178.672H331.955ZM331.955 176.704C331.955 174.863 331.775 173.278 331.22 172.215L328.732 173.513C328.946 173.922 329.149 174.897 329.149 176.704H331.955ZM331.252 172.279C330.594 170.845 329.224 170.309 327.768 170.309V173.115C328.553 173.115 328.655 173.347 328.701 173.449L331.252 172.279ZM327.768 170.309C326.446 170.309 325.252 170.776 324.447 171.859C323.699 172.864 323.437 174.203 323.437 175.648H326.243C326.243 174.469 326.47 173.84 326.698 173.533C326.868 173.304 327.139 173.115 327.768 173.115V170.309ZM323.437 175.648V177.04H326.243V175.648H323.437ZM324.893 175.638L319.805 175.446L319.699 178.25L324.787 178.442L324.893 175.638ZM321.155 176.877C321.216 173.965 321.883 172.116 322.89 171.037L320.839 169.123C319.158 170.924 318.417 173.587 318.35 176.819L321.155 176.877ZM322.9 171.026C323.884 169.949 325.516 169.275 328.104 169.275V166.469C325.061 166.469 322.533 167.267 320.828 169.134L322.9 171.026ZM328.104 169.275C330.517 169.275 331.949 169.938 332.771 170.959L334.958 169.201C333.411 167.278 331.004 166.469 328.104 166.469V169.275ZM332.792 170.985C333.703 172.064 334.285 173.867 334.285 176.656H337.091C337.091 173.557 336.458 170.976 334.936 169.175L332.792 170.985ZM334.285 176.656V189.328H337.091V176.656H334.285ZM334.285 189.328C334.285 191.479 334.451 193.767 334.778 196.188L337.559 195.812C337.246 193.497 337.091 191.337 337.091 189.328H334.285ZM336.168 194.597H331.464V197.403H336.168V194.597ZM332.842 195.734C332.491 193.917 332.277 192.605 332.187 191.771L329.397 192.069C329.5 193.027 329.733 194.435 330.087 196.266L332.842 195.734ZM329.451 191.507C329.141 192.516 328.607 193.353 327.838 194.045L329.715 196.131C330.866 195.095 331.676 193.82 332.133 192.333L329.451 191.507ZM327.82 194.061C327.193 194.645 326.355 194.981 325.176 194.981V197.787C326.942 197.787 328.503 197.259 329.732 196.115L327.82 194.061ZM327.192 193.371C328.248 193.371 329.204 192.961 330.037 192.296L328.284 190.104C327.836 190.463 327.48 190.565 327.192 190.565V193.371ZM330.069 192.269C330.773 191.67 331.36 191.045 331.755 190.386L329.349 188.942C329.169 189.243 328.828 189.642 328.252 190.131L330.069 192.269ZM331.955 189.664V181.792H329.149V189.664H331.955ZM329.869 180.567C328.468 181.349 327.334 182.056 326.495 182.686L328.178 184.93C328.874 184.408 329.885 183.771 331.236 183.017L329.869 180.567ZM326.502 182.68C325.646 183.313 324.914 184.063 324.313 184.927L326.616 186.529C327.039 185.921 327.555 185.391 328.17 184.936L326.502 182.68ZM324.289 184.962C323.637 185.961 323.341 187.118 323.341 188.368H326.147C326.147 187.57 326.331 186.967 326.639 186.494L324.289 184.962ZM323.341 188.368C323.341 189.662 323.571 190.865 324.192 191.821L326.545 190.291C326.334 189.967 326.147 189.378 326.147 188.368H323.341ZM324.21 191.848C324.913 192.876 325.976 193.371 327.192 193.371V190.565C326.809 190.565 326.655 190.452 326.526 190.264L324.21 191.848Z" fill="#EC78FF" fill-opacity="0.6"/>
</g>
<defs>
<filter id="filter0_di_527_1924" x="75.6888" y="91.8207" width="124.229" height="58.5475" filterUnits="userSpaceOnUse" color-interpolation-filters="sRGB">
<feFlood flood-opacity="0" result="BackgroundImageFix"/>
<feColorMatrix in="SourceAlpha" type="matrix" values="0 0 0 0 0 0 0 0 0 0 0 0 0 0 0 0 0 0 127 0" result="hardAlpha"/>
<feOffset dy="5.61193"/>
<feGaussianBlur stdDeviation="2.80596"/>
<feColorMatrix type="matrix" values="0 0 0 0 0 0 0 0 0 0 0 0 0 0 0 0 0 0 0.08 0"/>
<feBlend mode="normal" in2="BackgroundImageFix" result="effect1_dropShadow_527_1924"/>
<feBlend mode="normal" in="SourceGraphic" in2="effect1_dropShadow_527_1924" result="shape"/>
<feColorMatrix in="SourceAlpha" type="matrix" values="0 0 0 0 0 0 0 0 0 0 0 0 0 0 0 0 0 0 127 0" result="hardAlpha"/>
<feOffset dx="5.61193" dy="-11.2239"/>
<feGaussianBlur stdDeviation="0.701491"/>
<feComposite in2="hardAlpha" operator="arithmetic" k2="-1" k3="1"/>
<feColorMatrix type="matrix" values="0 0 0 0 0 0 0 0 0 0 0 0 0 0 0 0 0 0 0.11 0"/>
<feBlend mode="overlay" in2="shape" result="effect2_innerShadow_527_1924"/>
</filter>
<filter id="filter1_di_527_1924" x="54.4542" y="68.7887" width="124.229" height="58.5475" filterUnits="userSpaceOnUse" color-interpolation-filters="sRGB">
<feFlood flood-opacity="0" result="BackgroundImageFix"/>
<feColorMatrix in="SourceAlpha" type="matrix" values="0 0 0 0 0 0 0 0 0 0 0 0 0 0 0 0 0 0 127 0" result="hardAlpha"/>
<feOffset dy="5.61193"/>
<feGaussianBlur stdDeviation="2.80596"/>
<feColorMatrix type="matrix" values="0 0 0 0 0 0 0 0 0 0 0 0 0 0 0 0 0 0 0.08 0"/>
<feBlend mode="normal" in2="BackgroundImageFix" result="effect1_dropShadow_527_1924"/>
<feBlend mode="normal" in="SourceGraphic" in2="effect1_dropShadow_527_1924" result="shape"/>
<feColorMatrix in="SourceAlpha" type="matrix" values="0 0 0 0 0 0 0 0 0 0 0 0 0 0 0 0 0 0 127 0" result="hardAlpha"/>
<feOffset dx="5.61193" dy="-11.2239"/>
<feGaussianBlur stdDeviation="0.701491"/>
<feComposite in2="hardAlpha" operator="arithmetic" k2="-1" k3="1"/>
<feColorMatrix type="matrix" values="0 0 0 0 0 0 0 0 0 0 0 0 0 0 0 0 0 0 0.19 0"/>
<feBlend mode="overlay" in2="shape" result="effect2_innerShadow_527_1924"/>
</filter>
<filter id="filter2_di_527_1924" x="33.7954" y="39.1908" width="124.229" height="58.5475" filterUnits="userSpaceOnUse" color-interpolation-filters="sRGB">
<feFlood flood-opacity="0" result="BackgroundImageFix"/>
<feColorMatrix in="SourceAlpha" type="matrix" values="0 0 0 0 0 0 0 0 0 0 0 0 0 0 0 0 0 0 127 0" result="hardAlpha"/>
<feOffset dy="5.61193"/>
<feGaussianBlur stdDeviation="2.80596"/>
<feColorMatrix type="matrix" values="0 0 0 0 0 0 0 0 0 0 0 0 0 0 0 0 0 0 0.08 0"/>
<feBlend mode="normal" in2="BackgroundImageFix" result="effect1_dropShadow_527_1924"/>
<feBlend mode="normal" in="SourceGraphic" in2="effect1_dropShadow_527_1924" result="shape"/>
<feColorMatrix in="SourceAlpha" type="matrix" values="0 0 0 0 0 0 0 0 0 0 0 0 0 0 0 0 0 0 127 0" result="hardAlpha"/>
<feOffset dx="5.61193" dy="-11.2239"/>
<feGaussianBlur stdDeviation="0.701491"/>
<feComposite in2="hardAlpha" operator="arithmetic" k2="-1" k3="1"/>
<feColorMatrix type="matrix" values="0 0 0 0 0 0 0 0 0 0 0 0 0 0 0 0 0 0 0.42 0"/>
<feBlend mode="overlay" in2="shape" result="effect2_innerShadow_527_1924"/>
</filter>
<filter id="filter3_di_527_1924" x="176.083" y="91.8207" width="124.229" height="58.5475" filterUnits="userSpaceOnUse" color-interpolation-filters="sRGB">
<feFlood flood-opacity="0" result="BackgroundImageFix"/>
<feColorMatrix in="SourceAlpha" type="matrix" values="0 0 0 0 0 0 0 0 0 0 0 0 0 0 0 0 0 0 127 0" result="hardAlpha"/>
<feOffset dy="5.61193"/>
<feGaussianBlur stdDeviation="2.80596"/>
<feColorMatrix type="matrix" values="0 0 0 0 0 0 0 0 0 0 0 0 0 0 0 0 0 0 0.08 0"/>
<feBlend mode="normal" in2="BackgroundImageFix" result="effect1_dropShadow_527_1924"/>
<feBlend mode="normal" in="SourceGraphic" in2="effect1_dropShadow_527_1924" result="shape"/>
<feColorMatrix in="SourceAlpha" type="matrix" values="0 0 0 0 0 0 0 0 0 0 0 0 0 0 0 0 0 0 127 0" result="hardAlpha"/>
<feOffset dx="-5.61193" dy="-11.2239"/>
<feGaussianBlur stdDeviation="0.701491"/>
<feComposite in2="hardAlpha" operator="arithmetic" k2="-1" k3="1"/>
<feColorMatrix type="matrix" values="0 0 0 0 0 0 0 0 0 0 0 0 0 0 0 0 0 0 0.11 0"/>
<feBlend mode="overlay" in2="shape" result="effect2_innerShadow_527_1924"/>
</filter>
<filter id="filter4_di_527_1924" x="197.317" y="68.7887" width="124.229" height="58.5475" filterUnits="userSpaceOnUse" color-interpolation-filters="sRGB">
<feFlood flood-opacity="0" result="BackgroundImageFix"/>
<feColorMatrix in="SourceAlpha" type="matrix" values="0 0 0 0 0 0 0 0 0 0 0 0 0 0 0 0 0 0 127 0" result="hardAlpha"/>
<feOffset dy="5.61193"/>
<feGaussianBlur stdDeviation="2.80596"/>
<feColorMatrix type="matrix" values="0 0 0 0 0 0 0 0 0 0 0 0 0 0 0 0 0 0 0.08 0"/>
<feBlend mode="normal" in2="BackgroundImageFix" result="effect1_dropShadow_527_1924"/>
<feBlend mode="normal" in="SourceGraphic" in2="effect1_dropShadow_527_1924" result="shape"/>
<feColorMatrix in="SourceAlpha" type="matrix" values="0 0 0 0 0 0 0 0 0 0 0 0 0 0 0 0 0 0 127 0" result="hardAlpha"/>
<feOffset dx="-5.61193" dy="-11.2239"/>
<feGaussianBlur stdDeviation="0.701491"/>
<feComposite in2="hardAlpha" operator="arithmetic" k2="-1" k3="1"/>
<feColorMatrix type="matrix" values="0 0 0 0 0 0 0 0 0 0 0 0 0 0 0 0 0 0 0.19 0"/>
<feBlend mode="overlay" in2="shape" result="effect2_innerShadow_527_1924"/>
</filter>
<filter id="filter5_di_527_1924" x="217.976" y="39.1908" width="124.229" height="58.5475" filterUnits="userSpaceOnUse" color-interpolation-filters="sRGB">
<feFlood flood-opacity="0" result="BackgroundImageFix"/>
<feColorMatrix in="SourceAlpha" type="matrix" values="0 0 0 0 0 0 0 0 0 0 0 0 0 0 0 0 0 0 127 0" result="hardAlpha"/>
<feOffset dy="5.61193"/>
<feGaussianBlur stdDeviation="2.80596"/>
<feColorMatrix type="matrix" values="0 0 0 0 0 0 0 0 0 0 0 0 0 0 0 0 0 0 0.08 0"/>
<feBlend mode="normal" in2="BackgroundImageFix" result="effect1_dropShadow_527_1924"/>
<feBlend mode="normal" in="SourceGraphic" in2="effect1_dropShadow_527_1924" result="shape"/>
<feColorMatrix in="SourceAlpha" type="matrix" values="0 0 0 0 0 0 0 0 0 0 0 0 0 0 0 0 0 0 127 0" result="hardAlpha"/>
<feOffset dx="-5.61193" dy="-11.2239"/>
<feGaussianBlur stdDeviation="0.701491"/>
<feComposite in2="hardAlpha" operator="arithmetic" k2="-1" k3="1"/>
<feColorMatrix type="matrix" values="0 0 0 0 0 0 0 0 0 0 0 0 0 0 0 0 0 0 0.42 0"/>
<feBlend mode="overlay" in2="shape" result="effect2_innerShadow_527_1924"/>
</filter>
<filter id="filter6_d_527_1924" x="138.928" y="0.938498" width="100.123" height="100.123" filterUnits="userSpaceOnUse" color-interpolation-filters="sRGB">
<feFlood flood-opacity="0" result="BackgroundImageFix"/>
<feColorMatrix in="SourceAlpha" type="matrix" values="0 0 0 0 0 0 0 0 0 0 0 0 0 0 0 0 0 0 127 0" result="hardAlpha"/>
<feOffset/>
<feGaussianBlur stdDeviation="5.61193"/>
<feColorMatrix type="matrix" values="0 0 0 0 0 0 0 0 0 0 0 0 0 0 0 0 0 0 0.2 0"/>
<feBlend mode="normal" in2="BackgroundImageFix" result="effect1_dropShadow_527_1924"/>
<feBlend mode="normal" in="SourceGraphic" in2="effect1_dropShadow_527_1924" result="shape"/>
</filter>
<filter id="filter7_d_527_1924" x="179.002" y="40.8648" width="100.123" height="100.123" filterUnits="userSpaceOnUse" color-interpolation-filters="sRGB">
<feFlood flood-opacity="0" result="BackgroundImageFix"/>
<feColorMatrix in="SourceAlpha" type="matrix" values="0 0 0 0 0 0 0 0 0 0 0 0 0 0 0 0 0 0 127 0" result="hardAlpha"/>
<feOffset/>
<feGaussianBlur stdDeviation="5.61193"/>
<feColorMatrix type="matrix" values="0 0 0 0 0 0 0 0 0 0 0 0 0 0 0 0 0 0 0.2 0"/>
<feBlend mode="normal" in2="BackgroundImageFix" result="effect1_dropShadow_527_1924"/>
<feBlend mode="normal" in="SourceGraphic" in2="effect1_dropShadow_527_1924" result="shape"/>
</filter>
<filter id="filter8_d_527_1924" x="139.075" y="80.9385" width="100.123" height="100.123" filterUnits="userSpaceOnUse" color-interpolation-filters="sRGB">
<feFlood flood-opacity="0" result="BackgroundImageFix"/>
<feColorMatrix in="SourceAlpha" type="matrix" values="0 0 0 0 0 0 0 0 0 0 0 0 0 0 0 0 0 0 127 0" result="hardAlpha"/>
<feOffset/>
<feGaussianBlur stdDeviation="5.61193"/>
<feColorMatrix type="matrix" values="0 0 0 0 0 0 0 0 0 0 0 0 0 0 0 0 0 0 0.2 0"/>
<feBlend mode="normal" in2="BackgroundImageFix" result="effect1_dropShadow_527_1924"/>
<feBlend mode="normal" in="SourceGraphic" in2="effect1_dropShadow_527_1924" result="shape"/>
</filter>
<filter id="filter9_d_527_1924" x="99.0015" y="41.0122" width="100.123" height="100.123" filterUnits="userSpaceOnUse" color-interpolation-filters="sRGB">
<feFlood flood-opacity="0" result="BackgroundImageFix"/>
<feColorMatrix in="SourceAlpha" type="matrix" values="0 0 0 0 0 0 0 0 0 0 0 0 0 0 0 0 0 0 127 0" result="hardAlpha"/>
<feOffset/>
<feGaussianBlur stdDeviation="5.61193"/>
<feColorMatrix type="matrix" values="0 0 0 0 0 0 0 0 0 0 0 0 0 0 0 0 0 0 0.2 0"/>
<feBlend mode="normal" in2="BackgroundImageFix" result="effect1_dropShadow_527_1924"/>
<feBlend mode="normal" in="SourceGraphic" in2="effect1_dropShadow_527_1924" result="shape"/>
</filter>
<filter id="filter10_d_527_1924" x="105.72" y="7.65698" width="166.686" height="166.686" filterUnits="userSpaceOnUse" color-interpolation-filters="sRGB">
<feFlood flood-opacity="0" result="BackgroundImageFix"/>
<feColorMatrix in="SourceAlpha" type="matrix" values="0 0 0 0 0 0 0 0 0 0 0 0 0 0 0 0 0 0 127 0" result="hardAlpha"/>
<feOffset/>
<feGaussianBlur stdDeviation="8"/>
<feColorMatrix type="matrix" values="0 0 0 0 0 0 0 0 0 0 0 0 0 0 0 0 0 0 0.15 0"/>
<feBlend mode="normal" in2="BackgroundImageFix" result="effect1_dropShadow_527_1924"/>
<feBlend mode="normal" in="SourceGraphic" in2="effect1_dropShadow_527_1924" result="shape"/>
</filter>
<filter id="filter11_i_527_1924" x="137.153" y="39.0906" width="103.821" height="105.821" filterUnits="userSpaceOnUse" color-interpolation-filters="sRGB">
<feFlood flood-opacity="0" result="BackgroundImageFix"/>
<feBlend mode="normal" in="SourceGraphic" in2="BackgroundImageFix" result="shape"/>
<feColorMatrix in="SourceAlpha" type="matrix" values="0 0 0 0 0 0 0 0 0 0 0 0 0 0 0 0 0 0 127 0" result="hardAlpha"/>
<feOffset dy="2"/>
<feGaussianBlur stdDeviation="5"/>
<feComposite in2="hardAlpha" operator="arithmetic" k2="-1" k3="1"/>
<feColorMatrix type="matrix" values="0 0 0 0 0 0 0 0 0 0 0 0 0 0 0 0 0 0 0.8 0"/>
<feBlend mode="overlay" in2="shape" result="effect1_innerShadow_527_1924"/>
</filter>
<filter id="filter12_d_527_1924" x="-13.4739" y="100.665" width="405.762" height="160.575" filterUnits="userSpaceOnUse" color-interpolation-filters="sRGB">
<feFlood flood-opacity="0" result="BackgroundImageFix"/>
<feColorMatrix in="SourceAlpha" type="matrix" values="0 0 0 0 0 0 0 0 0 0 0 0 0 0 0 0 0 0 127 0" result="hardAlpha"/>
<feOffset/>
<feGaussianBlur stdDeviation="28.0596"/>
<feColorMatrix type="matrix" values="0 0 0 0 0.806667 0 0 0 0 0.395833 0 0 0 0 1 0 0 0 1 0"/>
<feBlend mode="normal" in2="BackgroundImageFix" result="effect1_dropShadow_527_1924"/>
<feBlend mode="normal" in="SourceGraphic" in2="effect1_dropShadow_527_1924" result="shape"/>
</filter>
<linearGradient id="paint0_linear_527_1924" x1="189.063" y1="23.657" x2="189.063" y2="158.343" gradientUnits="userSpaceOnUse">
<stop stop-color="#FFEB3A"/>
<stop offset="1" stop-color="#FA7002"/>
</linearGradient>
<linearGradient id="paint1_linear_527_1924" x1="189.063" y1="26.4629" x2="189.063" y2="155.537" gradientUnits="userSpaceOnUse">
<stop stop-color="#FFDE66"/>
<stop offset="1" stop-color="#FB9811"/>
</linearGradient>
<linearGradient id="paint2_linear_527_1924" x1="189.063" y1="36.2839" x2="189.063" y2="145.717" gradientUnits="userSpaceOnUse">
<stop stop-color="#FFAD31"/>
<stop offset="1" stop-color="#FFD446"/>
</linearGradient>
<radialGradient id="paint3_radial_527_1924" cx="0" cy="0" r="1" gradientUnits="userSpaceOnUse" gradientTransform="translate(172.685 66.4917) rotate(53.514) scale(78.2229 99.5459)">
<stop stop-color="#ED7CFF"/>
<stop offset="1" stop-color="#6E31E2"/>
</radialGradient>
<radialGradient id="paint4_radial_527_1924" cx="0" cy="0" r="1" gradientUnits="userSpaceOnUse" gradientTransform="translate(168.099 61.9058) rotate(51.3402) scale(12.5844 25.1951)">
<stop stop-color="white" stop-opacity="0.6"/>
<stop offset="1" stop-color="white" stop-opacity="0"/>
</radialGradient>
<linearGradient id="paint5_linear_527_1924" x1="176.51" y1="80.4465" x2="183.63" y2="85.6019" gradientUnits="userSpaceOnUse">
<stop stop-color="#FFD2F6"/>
<stop offset="1" stop-color="#FFEEFC"/>
</linearGradient>
<linearGradient id="paint6_linear_527_1924" x1="193.092" y1="81.7584" x2="204.901" y2="76.9747" gradientUnits="userSpaceOnUse">
<stop stop-color="#FFC2F1"/>
<stop offset="1" stop-color="#FFCDF4"/>
</linearGradient>
<linearGradient id="paint7_linear_527_1924" x1="191.71" y1="97.5016" x2="197.259" y2="106.943" gradientUnits="userSpaceOnUse">
<stop stop-color="#FF88EF"/>
<stop offset="1" stop-color="#E962D6"/>
</linearGradient>
<linearGradient id="paint8_linear_527_1924" x1="184.34" y1="94.8777" x2="184.756" y2="110.622" gradientUnits="userSpaceOnUse">
<stop stop-color="#FFCDF4"/>
<stop offset="1" stop-color="#FF97E8"/>
</linearGradient>
<radialGradient id="paint9_radial_527_1924" cx="0" cy="0" r="1" gradientUnits="userSpaceOnUse" gradientTransform="translate(188 171) rotate(90) scale(24.5522 200.626)">
<stop stop-color="#EC78FF" stop-opacity="0.25"/>
<stop offset="1" stop-color="#EC78FF" stop-opacity="0"/>
</radialGradient>
<radialGradient id="paint10_radial_527_1924" cx="0" cy="0" r="1" gradientUnits="userSpaceOnUse" gradientTransform="translate(188 171) rotate(90) scale(4.91044 129.074)">
<stop stop-color="#EC78FF" stop-opacity="0.25"/>
<stop offset="1" stop-color="#EC78FF" stop-opacity="0"/>
</radialGradient>
</defs>
</svg>
